<?xml version="1.0" encoding="UTF-8"?>
<svg id="Layer_1" data-name="Layer 1" xmlns="http://www.w3.org/2000/svg" xmlns:xlink="http://www.w3.org/1999/xlink" viewBox="0 0 50 50">
  <defs>
    <style>
      .command-cls-1 {
        fill: url(#command-linear-gradient);
      }

      .command-cls-1, .command-cls-2, .command-cls-3, .command-cls-4 {
        stroke-width: 0px;
      }

      .command-cls-2 {
        fill: url(#command-linear-gradient-2);
      }

      .command-cls-3 {
        fill: url(#command-linear-gradient-3);
      }

      .command-cls-4 {
        fill: url(#command-linear-gradient-4);
      }
    </style>
    <linearGradient id="command-linear-gradient" x1="18.09" y1="2.73" x2="18.09" y2="47.67" gradientUnits="userSpaceOnUse">
      <stop offset="0" stop-color="#59bae9"/>
      <stop offset="1" stop-color="#4663ae"/>
    </linearGradient>
    <linearGradient id="command-linear-gradient-2" x1="18.82" y1="2.73" x2="18.82" y2="47.67" xlink:href="#command-linear-gradient"/>
    <linearGradient id="command-linear-gradient-3" x1="39.63" y1="2.73" x2="39.63" y2="47.67" xlink:href="#command-linear-gradient"/>
    <linearGradient id="command-linear-gradient-4" x1="24.78" y1="2.73" x2="24.78" y2="47.67" xlink:href="#command-linear-gradient"/>
  </defs>
  <path class="command-cls-1" d="m8.39,28.1c0-.17-.02-.34-.02-.51,0-8.98,7.25-16.29,16.21-16.4l-2.71,2.7,2.48,2.47,4.64-4.64h0l2.3-2.3-6.94-6.94-2.48,2.47,2.72,2.72c-10.75.1-19.48,8.76-19.71,19.48l1.83.49,1.68.45Z"/>
  <path class="command-cls-2" d="m33.42,41.53c-2.51,1.56-5.47,2.47-8.64,2.47-5.98,0-11.22-3.23-14.08-8.03l3.68.98.91-3.38-9.48-2.54-.35,1.31h0l-2.19,8.16,3.38.91,1-3.74c3.46,5.86,9.84,9.82,17.13,9.82,3.47,0,6.74-.9,9.58-2.46l-.49-1.83-.45-1.68Z"/>
  <path class="command-cls-3" d="m46.73,39.77l-.91-3.38-3.72,1c1.64-2.89,2.58-6.23,2.58-9.79,0-7.2-3.84-13.52-9.59-17.02l-1.34,1.34-1.23,1.23c5.14,2.77,8.65,8.21,8.65,14.45,0,2.91-.77,5.65-2.1,8.02l-.99-3.69-3.38.91,1.69,6.33h0l.84,3.15,1.29-.34h0l8.19-2.19Z"/>
  <path class="command-cls-4" d="m17.33,35.04h14.9v-14.9h-14.9v14.9Zm3.5-11.4h7.9v7.9h-7.9v-7.9Z"/>
</svg>