<?xml version="1.0" encoding="UTF-8"?>
<svg id="Layer_1" data-name="Layer 1" xmlns="http://www.w3.org/2000/svg" xmlns:xlink="http://www.w3.org/1999/xlink" viewBox="0 0 50 50">
  <defs>
    <style>
      .query-cls-1 {
        fill: url(#query-linear-gradient);
      }

      .query-cls-1, .query-cls-2, .query-cls-3 {
        stroke-width: 0px;
      }

      .query-cls-2 {
        fill: url(#query-linear-gradient-2);
      }

      .query-cls-3 {
        fill: url(#query-linear-gradient-3);
      }
    </style>
    <linearGradient id="query-linear-gradient" x1="32.57" y1="2.51" x2="32.57" y2="47.53" gradientUnits="userSpaceOnUse">
      <stop offset="0" stop-color="#8dd1c4"/>
      <stop offset="1" stop-color="#4ebea7"/>
    </linearGradient>
    <linearGradient id="query-linear-gradient-2" x1="21.75" y1="2.5" x2="21.75" y2="47.52" xlink:href="#query-linear-gradient"/>
    <linearGradient id="query-linear-gradient-3" x1="33.11" y1="2.51" x2="33.11" y2="47.53" xlink:href="#query-linear-gradient"/>
  </defs>
  <path class="query-cls-1" d="m34.2,25.92c-1.76,1.04-4.15,1.89-7,2.38-.88,1.1-1.36,2.41-1.46,3.74,4.88-.54,9.04-2.05,11.77-4.17v2.64c0,2.59-3.97,5.4-10.13,6.51.11.12.22.25.33.37,1.21,1.21,2.8,1.9,4.5,1.99,2.7-.94,4.92-2.23,6.46-3.77.47-.94.72-1.98.72-3.05,0-1.83-.71-3.55-2-4.84-.89-.89-1.99-1.5-3.19-1.8Z"/>
  <path class="query-cls-2" d="m17.89,23.3c.67-1.07,1.46-2.08,2.39-3.01.11-.11.22-.21.33-.31-8.67-.29-14.61-3.8-14.61-6.98s6.47-7,15.76-7,15.76,3.69,15.76,7c0,.87-.45,1.76-1.27,2.6,1.68.36,3.28.97,4.77,1.8v-4.41c0-5.89-8.46-10.5-19.26-10.5S2.5,7.11,2.5,13v17.51c0,5.04,6.2,9.15,14.77,10.23-.64-1.21-1.13-2.48-1.46-3.78-5.98-1.15-9.8-3.91-9.8-6.45v-2.64c2.25,1.75,5.47,3.08,9.26,3.8.06-1.17.23-2.32.53-3.46-5.97-1.15-9.79-3.91-9.79-6.45v-2.64c2.76,2.14,6.96,3.66,11.9,4.19Z"/>
  <path class="query-cls-3" d="m43.49,41.02c1.88-2.41,2.9-5.36,2.9-8.47,0-3.7-1.44-7.18-4.05-9.79-2.61-2.61-6.09-4.05-9.79-4.05s-7.17,1.44-9.79,4.05c-5.4,5.4-5.4,14.18,0,19.58,2.61,2.61,6.09,4.05,9.79,4.05,3.11,0,6.05-1.03,8.46-2.9l4.01,4.01,2.47-2.48-4.01-4.01Zm-3.63-1.15c-1.95,1.95-4.55,3.03-7.31,3.03s-5.36-1.08-7.31-3.03c-4.03-4.03-4.03-10.6,0-14.63,1.96-1.95,4.55-3.03,7.31-3.03s5.36,1.08,7.31,3.03c1.95,1.95,3.03,4.55,3.03,7.31s-1.08,5.36-3.03,7.31Z"/>
</svg>