<?xml version="1.0" encoding="utf-8"?>
<!-- Generator: Adobe Illustrator 28.1.0, SVG Export Plug-In . SVG Version: 6.00 Build 0)  -->
<svg version="1.1" id="Layer_1" xmlns="http://www.w3.org/2000/svg" xmlns:xlink="http://www.w3.org/1999/xlink" x="0px" y="0px"
	 viewBox="0 0 50 50" style="enable-background:new 0 0 50 50;" xml:space="preserve">
<g>
	<linearGradient id="SVGID_1_" gradientUnits="userSpaceOnUse" x1="18.6863" y1="2.2615" x2="18.9961" y2="46.9991">
		<stop  offset="0" style="stop-color:#00C0F2"/>
		<stop  offset="1" style="stop-color:#00599C"/>
	</linearGradient>
	<path style="fill:url(#SVGID_1_);" d="M24.3,25.9c0,3-2.4,5.4-5.5,5.4c-3,0-5.4-2.4-5.4-5.4s2.4-5.5,5.4-5.5
		C21.9,20.4,24.3,22.8,24.3,25.9z"/>
	
		<linearGradient id="SVGID_00000039825338271556572140000013892214720220289962_" gradientUnits="userSpaceOnUse" x1="18.7063" y1="2.8115" x2="18.8886" y2="47.2998">
		<stop  offset="0" style="stop-color:#00C0F2"/>
		<stop  offset="1" style="stop-color:#00599C"/>
	</linearGradient>
	<path style="fill:url(#SVGID_00000039825338271556572140000013892214720220289962_);" d="M18.8,10.1C10.1,10.1,3,17.2,3,25.9
		s7.1,15.8,15.8,15.8s15.8-7.1,15.8-15.8C34.7,17.2,27.6,10.1,18.8,10.1z M18.8,38c-6.7,0-12.1-5.4-12.1-12.1s5.4-12.1,12.1-12.1
		s12.1,5.4,12.1,12.1S25.5,38,18.8,38z"/>
	
		<linearGradient id="SVGID_00000072240226187751166280000007139554378842016669_" gradientUnits="userSpaceOnUse" x1="41.6176" y1="2.2137" x2="41.9516" y2="47.0411">
		<stop  offset="0" style="stop-color:#00C0F2"/>
		<stop  offset="1" style="stop-color:#00599C"/>
	</linearGradient>
	<path style="fill:url(#SVGID_00000072240226187751166280000007139554378842016669_);" d="M47.3,26c0,0.2-0.1,0.3-0.3,0.5l-5.3,5.3
		c-0.2,0.2-0.4,0.3-0.7,0.3c-0.2,0-0.5-0.1-0.7-0.3L39.5,31c-0.4-0.4-0.4-1,0-1.3l2.1-2.1h-5.3c0.1-0.6,0.1-1.2,0.1-1.7
		c0-0.6,0-1.2-0.1-1.7h5.3L39.5,22c-0.4-0.4-0.4-1,0-1.3l0.4-0.4l0,0l0.4-0.4c0.4-0.4,1-0.4,1.3,0l1.2,1.2l2.4,2.4l0.9,0.9l0.8,0.8
		c0.2,0.2,0.4,0.3,0.4,0.6"/>
	
		<linearGradient id="SVGID_00000117653988378266326040000007427446130141739649_" gradientUnits="userSpaceOnUse" x1="36.5308" y1="4.1168" x2="37.0148" y2="46.6773">
		<stop  offset="0" style="stop-color:#00C0F2"/>
		<stop  offset="1" style="stop-color:#00599C"/>
	</linearGradient>
	<path style="fill:url(#SVGID_00000117653988378266326040000007427446130141739649_);" d="M41.6,15.2c0,0.3-0.1,0.5-0.3,0.7
		c-0.2,0.2-0.4,0.3-0.7,0.3h-1.2c-0.5,0-1-0.4-1-1v-3l-4.6,4.6c-0.6-1-1.3-2-2.1-2.8L36,9.7h-3c-0.5,0-1-0.4-1-1V8.2l0,0V7.6
		c0-0.5,0.4-1,1-0.9h7.5c0.2,0,0.4,0.1,0.6,0.2L41.2,7l0,0l0.1,0.1c0.1,0.2,0.2,0.3,0.2,0.6L41.6,15.2z"/>
	
		<linearGradient id="SVGID_00000127004996922525019510000008556548345589657491_" gradientUnits="userSpaceOnUse" x1="36.7536" y1="47.0147" x2="36.093" y2="4.781">
		<stop  offset="0" style="stop-color:#00599C"/>
		<stop  offset="1" style="stop-color:#00C0F2"/>
	</linearGradient>
	<path style="fill:url(#SVGID_00000127004996922525019510000008556548345589657491_);" d="M41.5,41.8v2.4c0,0.2-0.1,0.4-0.2,0.6
		l-0.1,0.1l0,0L41.1,45c-0.2,0.1-0.4,0.2-0.6,0.2H33c-0.3,0-0.5-0.1-0.7-0.3S32,44.5,32,44.2V43c0-0.5,0.4-1,1-1h3l-4.3-4.2
		c0.8-0.9,1.5-1.8,2.1-2.8l4.6,4.6v-3c0-0.5,0.4-1,1-1h0.5h0.6c0.5,0,1,0.4,1,1v1.8C41.5,38.4,41.5,41.8,41.5,41.8z"/>
	
		<linearGradient id="SVGID_00000040564318900584649660000000031916196881615758_" gradientUnits="userSpaceOnUse" x1="18.6308" y1="47.1438" x2="19.0918" y2="2.4756">
		<stop  offset="0" style="stop-color:#00599C"/>
		<stop  offset="1" style="stop-color:#00C0F2"/>
	</linearGradient>
	<path style="fill:url(#SVGID_00000040564318900584649660000000031916196881615758_);" d="M24.3,25.9c0,3-2.4,5.4-5.5,5.4
		c-3,0-5.4-2.4-5.4-5.4s2.4-5.5,5.4-5.5C21.9,20.4,24.3,22.8,24.3,25.9z"/>
</g>
</svg>
