<?xml version="1.0" encoding="utf-8"?>
<!-- Generator: Adobe Illustrator 28.3.0, SVG Export Plug-In . SVG Version: 6.00 Build 0)  -->
<svg version="1.1" id="Magnifying_Glass" xmlns="http://www.w3.org/2000/svg" xmlns:xlink="http://www.w3.org/1999/xlink" x="0px"
	 y="0px" viewBox="0 0 50 50" enable-background="new 0 0 50 50" xml:space="preserve">
<g id="level-1" display="none">
	<g display="inline" opacity="0.75">
		<path opacity="0.1" fill="#6936AA" enable-background="new    " d="M43.9,13.8v24L25,46.4L6.1,37.8v-24L25,3.5L43.9,13.8z"/>
		<path fill="#6936AA" d="M45.6,13.8v24l-1,1.6L25.7,48h-1.4L5.4,39.4l-1-1.6v-24l0.9-1.5l0.1,3.1l2.4,1.1v20.3l15.5,7V23.5l1,0.5
			h1.4l1-0.4v20.3l15.4-7V16.5l2.4-1.1l0.1-3.1L45.6,13.8z"/>
	</g>
	<path display="inline" opacity="0.1" fill="#6936AA" enable-background="new    " d="M43.9,13.8L25,22.4L6.1,13.8L25,3.5L43.9,13.8
		z"/>
	<path display="inline" fill="#6936AA" d="M25.8,2h-1.6L5.3,12.3l0.1,3.1L24.3,24h1.4l18.9-8.6l0.1-3.1L25.8,2z M25,20.5l-15-6.9
		l15-8.2l15,8.2L25,20.5z"/>
</g>
<linearGradient id="SVGID_1_d5f0eaad-fa4c-462b-aea8-4bf346b1fa7e" gradientUnits="userSpaceOnUse" x1="38.4644" y1="45.5245" x2="38.342" y2="23.5731">
	<stop  offset="5.695193e-02" style="stop-color:#406AB3"/>
	<stop  offset="1" style="stop-color:#64CCEF"/>
</linearGradient>
<path fill="url(#SVGID_1_d5f0eaad-fa4c-462b-aea8-4bf346b1fa7e)" d="M49.4,32.3v1.6c0,0.7-0.6,1.5-1.5,1.5h-7.3v6.8c0,0.7-0.6,1.5-1.5,1.5h-1.6c-0.7,0-1.5-0.7-1.5-1.5
	v-6.8h-7.3c-0.7,0-1.5-0.7-1.5-1.5v-1.6c0-0.7,0.7-1.5,1.5-1.5h7.3v-7.7c0-0.9,0.7-1.5,1.5-1.5h1.6c0.9,0,1.5,0.6,1.5,1.5v7.7h7.3
	C48.8,30.8,49.4,31.4,49.4,32.3z"/>
<linearGradient id="SVGID_00000167356258662443738680000008737812540260180098_" gradientUnits="userSpaceOnUse" x1="25" y1="2.725" x2="25" y2="47.3">
	<stop  offset="0" style="stop-color:#946BC7"/>
	<stop  offset="0.1302" style="stop-color:#946BC7"/>
	<stop  offset="0.6686" style="stop-color:#713FB0"/>
	<stop  offset="1" style="stop-color:#6936AA"/>
</linearGradient>
<path opacity="0.8" fill="url(#SVGID_00000167356258662443738680000008737812540260180098_)" enable-background="new    " d="
	M44.1,11.9L25.5,2.8c-0.3-0.1-0.6-0.1-0.9,0L5.9,11.9c-0.4,0.2-0.6,0.5-0.6,0.9v24.3c0,0.4,0.2,0.7,0.6,0.9l18.6,9.2
	c0.1,0.1,0.3,0.1,0.5,0.1s0.3,0,0.5-0.1l7-3.4l2.8-1.4h0V39l-2.7,1.3v0l-6,2.9V22.4L41.6,15v14.8h3.1V12.9
	C44.7,12.5,44.5,12.1,44.1,11.9z M23.5,43.3L11,37.1l-2.6-1.2V15l15.1,7.4V43.3z M25,19.7l-13.9-6.9H11l14-6.9l13.9,6.9L25,19.7z"/>
</svg>
