<?xml version="1.0" encoding="UTF-8"?>
<svg id="Layer_1" data-name="Layer 1" xmlns="http://www.w3.org/2000/svg" xmlns:xlink="http://www.w3.org/1999/xlink" viewBox="0 0 50 50">
  <defs>
    <style>
      .table-cls-1 {
        fill: url(#table-linear-gradient);
      }

      .table-cls-1, .table-cls-2 {
        stroke-width: 0px;
      }

      .table-cls-2 {
        fill: url(#table-linear-gradient-2);
      }
    </style>
    <linearGradient id="table-linear-gradient" x1="24.88" y1="8.11" x2="24.88" y2="41.47" gradientUnits="userSpaceOnUse">
      <stop offset="0" stop-color="#5cc7d6"/>
      <stop offset="1" stop-color="#4173b6"/>
    </linearGradient>
    <linearGradient id="table-linear-gradient-2" x1="24.88" y1="5.55" x2="24.88" y2="43.78" xlink:href="#table-linear-gradient"/>
  </defs>
  <path class="table-cls-1" d="m35.2,22.41h6.35v-1.59h-6.35v-3.17h-1.59v3.17h-7.93v-3.17h-1.59v3.17h-7.93v-3.17h-1.59v3.17h-6.35v1.59h6.35v4.76h-6.35v1.59h6.35v4.76h-6.35v1.59h6.35v3.17h1.59v-3.17h7.93v3.17h1.59v-3.17h7.93v3.17h1.59v-3.17h6.35v-1.59h-6.35v-4.76h6.35v-1.59h-6.35v-4.76Zm-11.11,11.11h-7.93v-4.76h7.93v4.76Zm0-6.35h-7.93v-4.76h7.93v4.76Zm9.52,6.35h-7.93v-4.76h7.93v4.76Zm0-6.35h-7.93v-4.76h7.93v4.76Z"/>
  <path class="table-cls-2" d="m2.37,5.45v38.1h45.02V5.45H2.37Zm41.56,34.63H5.84V15.84h38.1v24.24Zm0-27.71H5.84v-3.46h38.1v3.46Z"/>
</svg>