<?xml version="1.0" encoding="utf-8"?>
<!-- Generator: Adobe Illustrator 28.1.0, SVG Export Plug-In . SVG Version: 6.00 Build 0)  -->
<svg version="1.1" id="Services_Green" xmlns="http://www.w3.org/2000/svg" xmlns:xlink="http://www.w3.org/1999/xlink" x="0px"
	 y="0px" viewBox="0 0 50 50" enable-background="new 0 0 50 50" xml:space="preserve">
<g id="_x3C_Services_Green_x3E_">
	
		<linearGradient id="_x3C_Circle_C_x3E__00000111886546646231595820000007510188359395387835_" gradientUnits="userSpaceOnUse" x1="18.6863" y1="2.2602" x2="18.9961" y2="46.9979">
		<stop  offset="0" style="stop-color:#3EAA5C"/>
		<stop  offset="1" style="stop-color:#00673C"/>
	</linearGradient>
	<path id="_x3C_Circle_C_x3E_" fill="url(#_x3C_Circle_C_x3E__00000111886546646231595820000007510188359395387835_)" d="M24.3,25.9
		c0,3-2.4,5.4-5.5,5.4c-3,0-5.4-2.4-5.4-5.4s2.4-5.5,5.4-5.5C21.9,20.4,24.3,22.8,24.3,25.9z"/>
	
		<linearGradient id="_x3C_Circle_B_x3E__00000021826390288392762990000000010505995479971489_" gradientUnits="userSpaceOnUse" x1="18.7063" y1="2.8103" x2="18.8886" y2="47.2985">
		<stop  offset="0" style="stop-color:#3EAA5C"/>
		<stop  offset="1" style="stop-color:#00673C"/>
	</linearGradient>
	<path id="_x3C_Circle_B_x3E_" fill="url(#_x3C_Circle_B_x3E__00000021826390288392762990000000010505995479971489_)" d="M18.8,10.1
		C10.1,10.1,3,17.2,3,25.9s7.1,15.8,15.8,15.8s15.8-7.1,15.8-15.8C34.7,17.2,27.6,10.1,18.8,10.1z M18.8,38
		c-6.7,0-12.1-5.4-12.1-12.1s5.4-12.1,12.1-12.1s12.1,5.4,12.1,12.1S25.5,38,18.8,38z"/>
	
		<linearGradient id="_x3C_Arrow_C_x3E__00000028302257353221305780000011849778315655665562_" gradientUnits="userSpaceOnUse" x1="41.6176" y1="2.2124" x2="41.9516" y2="47.0399">
		<stop  offset="0" style="stop-color:#3EAA5C"/>
		<stop  offset="1" style="stop-color:#00673C"/>
	</linearGradient>
	<path id="_x3C_Arrow_C_x3E_" fill="url(#_x3C_Arrow_C_x3E__00000028302257353221305780000011849778315655665562_)" d="M47.3,26
		c0,0.2-0.2,0.3-0.3,0.5l-5.3,5.3c-0.2,0.2-0.4,0.3-0.7,0.3c-0.2,0-0.5-0.1-0.7-0.3L39.5,31c-0.4-0.4-0.4-1,0-1.3l2.1-2.1h-5.3
		c0.1-0.6,0.1-1.2,0.1-1.7c0-0.6,0-1.2-0.1-1.7h5.3L39.5,22c-0.4-0.4-0.4-1,0-1.3l0.4-0.4l0,0l0.4-0.4c0.4-0.4,1-0.4,1.3,0l1.2,1.2
		l2.4,2.4l0.9,0.9l0.8,0.8c0.2,0.2,0.4,0.4,0.4,0.6"/>
	
		<linearGradient id="_x3C_Arrow_B_x3E__00000096018354034840948100000001861230029468571526_" gradientUnits="userSpaceOnUse" x1="36.5308" y1="4.1156" x2="37.0148" y2="46.676">
		<stop  offset="0" style="stop-color:#3EAA5C"/>
		<stop  offset="1" style="stop-color:#00673C"/>
	</linearGradient>
	<path id="_x3C_Arrow_B_x3E_" fill="url(#_x3C_Arrow_B_x3E__00000096018354034840948100000001861230029468571526_)" d="M41.6,15.2
		c0,0.3-0.1,0.5-0.3,0.7c-0.2,0.2-0.4,0.3-0.7,0.3h-1.2c-0.5,0-1-0.4-1-1v-3l-4.6,4.6c-0.6-1-1.3-2-2.1-2.8L36,9.7h-3
		c-0.5,0-1-0.4-1-1V8.2l0,0V7.6c0-0.5,0.4-1,1-0.9h7.5c0.2,0,0.4,0.1,0.6,0.2L41.2,7l0,0l0.1,0.1c0.1,0.2,0.2,0.3,0.2,0.6L41.6,15.2
		z"/>
	
		<linearGradient id="_x3C_Arrow_A_x3E__00000047044522042068736970000013323569799696625070_" gradientUnits="userSpaceOnUse" x1="36.2392" y1="5.3934" x2="36.7183" y2="47.6295">
		<stop  offset="0" style="stop-color:#3EAA5C"/>
		<stop  offset="1" style="stop-color:#00673C"/>
	</linearGradient>
	<path id="_x3C_Arrow_A_x3E_" fill="url(#_x3C_Arrow_A_x3E__00000047044522042068736970000013323569799696625070_)" d="M41.5,41.8
		v2.4c0,0.2-0.1,0.4-0.2,0.6l-0.1,0.1l0,0L41.1,45c-0.2,0.1-0.4,0.2-0.6,0.2H33c-0.3,0-0.5-0.1-0.7-0.3S32,44.5,32,44.2V43
		c0-0.5,0.4-1,1-1h3l-4.3-4.2c0.8-0.9,1.5-1.8,2.1-2.8l4.6,4.6v-3c0-0.5,0.4-1,1-1h0.5h0.6c0.5,0,1,0.4,1,1v1.8
		C41.5,38.4,41.5,41.8,41.5,41.8z"/>
	
		<linearGradient id="_x3C_Circle_A_x3E__00000160913406500473402130000013729792516368216482_" gradientUnits="userSpaceOnUse" x1="18.8774" y1="2.387" x2="18.8253" y2="47.0576">
		<stop  offset="0" style="stop-color:#3EAA5C"/>
		<stop  offset="1" style="stop-color:#00673C"/>
	</linearGradient>
	<path id="_x3C_Circle_A_x3E_" fill="url(#_x3C_Circle_A_x3E__00000160913406500473402130000013729792516368216482_)" d="M24.3,25.9
		c0,3-2.4,5.4-5.5,5.4c-3,0-5.4-2.4-5.4-5.4s2.4-5.5,5.4-5.5C21.9,20.4,24.3,22.8,24.3,25.9z"/>
</g>
</svg>
