<?xml version="1.0" encoding="utf-8"?>
<!-- Generator: Adobe Illustrator 28.1.0, SVG Export Plug-In . SVG Version: 6.00 Build 0)  -->
<svg version="1.1" id="Layer_1" xmlns="http://www.w3.org/2000/svg" xmlns:xlink="http://www.w3.org/1999/xlink" x="0px" y="0px"
	 viewBox="0 0 50 50" style="enable-background:new 0 0 50 50;" xml:space="preserve">
<g>
	
		<linearGradient id="SVGID_1_" gradientUnits="userSpaceOnUse" x1="18.6863" y1="47.7398" x2="18.9961" y2="3.0021" gradientTransform="matrix(1 0 0 -1 0 50)">
		<stop  offset="0" style="stop-color:#3EAA5C"/>
		<stop  offset="1" style="stop-color:#00673C"/>
	</linearGradient>
	<path style="fill:url(#SVGID_1_);" d="M24.3,25.9c0,3-2.4,5.4-5.5,5.4c-3,0-5.4-2.4-5.4-5.4s2.4-5.5,5.4-5.5
		C21.9,20.4,24.3,22.8,24.3,25.9z"/>
	
		<linearGradient id="SVGID_00000147179950112156854500000002267447585506442649_" gradientUnits="userSpaceOnUse" x1="18.7063" y1="47.1897" x2="18.8886" y2="2.7015" gradientTransform="matrix(1 0 0 -1 0 50)">
		<stop  offset="0" style="stop-color:#3EAA5C"/>
		<stop  offset="1" style="stop-color:#00673C"/>
	</linearGradient>
	<path style="fill:url(#SVGID_00000147179950112156854500000002267447585506442649_);" d="M18.8,10.1C10.1,10.1,3,17.2,3,25.9
		s7.1,15.8,15.8,15.8s15.8-7.1,15.8-15.8C34.7,17.2,27.6,10.1,18.8,10.1z M18.8,38c-6.7,0-12.1-5.4-12.1-12.1s5.4-12.1,12.1-12.1
		s12.1,5.4,12.1,12.1S25.5,38,18.8,38z"/>
	
		<linearGradient id="SVGID_00000098905327890439443860000012275518039227475891_" gradientUnits="userSpaceOnUse" x1="41.6294" y1="47.7877" x2="41.9634" y2="2.9602" gradientTransform="matrix(1 0 0 -1 0 50)">
		<stop  offset="0" style="stop-color:#3EAA5C"/>
		<stop  offset="1" style="stop-color:#00673C"/>
	</linearGradient>
	<path style="fill:url(#SVGID_00000098905327890439443860000012275518039227475891_);" d="M47.3,26c0,0.2-0.2,0.3-0.3,0.5l-5.3,5.3
		c-0.2,0.2-0.4,0.3-0.7,0.3c-0.2,0-0.5-0.1-0.7-0.3L39.5,31c-0.4-0.4-0.4-1,0-1.3l2.1-2.1h-5.3c0.1-0.6,0.1-1.2,0.1-1.7
		c0-0.6,0-1.2-0.1-1.7h5.3L39.5,22c-0.4-0.4-0.4-1,0-1.3l0.4-0.4l0,0l0.4-0.4c0.4-0.4,1-0.4,1.3,0l1.2,1.2l2.4,2.4l0.9,0.9l0.8,0.8
		c0.2,0.2,0.4,0.4,0.4,0.6"/>
	
		<linearGradient id="SVGID_00000131352473533636748250000012065248326599948456_" gradientUnits="userSpaceOnUse" x1="36.5308" y1="45.8844" x2="37.0148" y2="3.324" gradientTransform="matrix(1 0 0 -1 0 50)">
		<stop  offset="0" style="stop-color:#3EAA5C"/>
		<stop  offset="1" style="stop-color:#00673C"/>
	</linearGradient>
	<path style="fill:url(#SVGID_00000131352473533636748250000012065248326599948456_);" d="M41.6,15.2c0,0.3-0.1,0.5-0.3,0.7
		c-0.2,0.2-0.4,0.3-0.7,0.3h-1.2c-0.5,0-1-0.4-1-1v-3l-4.6,4.6c-0.6-1-1.3-2-2.1-2.8L36,9.7h-3c-0.5,0-1-0.4-1-1V8.2l0,0V7.6
		c0-0.5,0.4-1,1-0.9h7.5c0.2,0,0.4,0.1,0.6,0.2L41.2,7l0,0l0.1,0.1c0.1,0.2,0.2,0.3,0.2,0.6L41.6,15.2z"/>
	
		<linearGradient id="SVGID_00000128460825833622921020000005352829684604536486_" gradientUnits="userSpaceOnUse" x1="36.2392" y1="44.6066" x2="36.7183" y2="2.3705" gradientTransform="matrix(1 0 0 -1 0 50)">
		<stop  offset="0" style="stop-color:#3EAA5C"/>
		<stop  offset="1" style="stop-color:#00673C"/>
	</linearGradient>
	<path style="fill:url(#SVGID_00000128460825833622921020000005352829684604536486_);" d="M41.5,41.8v2.4c0,0.2-0.1,0.4-0.2,0.6
		l-0.1,0.1l0,0L41.1,45c-0.2,0.1-0.4,0.2-0.6,0.2H33c-0.3,0-0.5-0.1-0.7-0.3S32,44.5,32,44.2V43c0-0.5,0.4-1,1-1h3l-4.3-4.2
		c0.8-0.9,1.5-1.8,2.1-2.8l4.6,4.6v-3c0-0.5,0.4-1,1-1h0.5h0.6c0.5,0,1,0.4,1,1v1.8V41.8z"/>
	
		<linearGradient id="SVGID_00000111167462878155415790000004958470466027463814_" gradientUnits="userSpaceOnUse" x1="18.8774" y1="47.613" x2="18.8253" y2="2.9424" gradientTransform="matrix(1 0 0 -1 0 50)">
		<stop  offset="0" style="stop-color:#3EAA5C"/>
		<stop  offset="1" style="stop-color:#00673C"/>
	</linearGradient>
	<path style="fill:url(#SVGID_00000111167462878155415790000004958470466027463814_);" d="M24.3,25.9c0,3-2.4,5.4-5.5,5.4
		c-3,0-5.4-2.4-5.4-5.4s2.4-5.5,5.4-5.5C21.9,20.4,24.3,22.8,24.3,25.9z"/>
</g>
</svg>
