<?xml version="1.0" encoding="UTF-8"?>
<svg id="uuid-9cae7c4d-d9b0-4977-9ffa-e5bfa3c220a1" data-name="Query" xmlns="http://www.w3.org/2000/svg" xmlns:xlink="http://www.w3.org/1999/xlink" viewBox="0 0 42.2 44.46">
  <defs>
    <style>
      .uuid-f8a790a5-d950-4a24-a7ff-a0d27bd21cca {
        fill: url(#uuid-522b18a4-60d0-4ce4-9872-bdd04a7181f0);
      }

      .uuid-f8a790a5-d950-4a24-a7ff-a0d27bd21cca, .uuid-d060900a-04c0-40d0-abe4-cd8ec880075d, .uuid-27ef3e14-3b60-42c2-99c2-949074d0e24b, .uuid-5004737a-64e3-4834-afe7-a49f3b011e56, .uuid-3fb6147f-1431-4722-826c-0246978f4b42 {
        stroke-width: 0px;
      }

      .uuid-d060900a-04c0-40d0-abe4-cd8ec880075d {
        fill: url(#uuid-6a8f3784-f58c-427c-af61-8bf990c386ba);
      }

      .uuid-27ef3e14-3b60-42c2-99c2-949074d0e24b {
        fill: url(#uuid-6eb5154c-8f60-49f4-a439-6e1e10a6f01f);
      }

      .uuid-5004737a-64e3-4834-afe7-a49f3b011e56 {
        fill: url(#uuid-7cff7a65-8b95-4d95-8f48-4a9b519076bc);
      }

      .uuid-3fb6147f-1431-4722-826c-0246978f4b42 {
        fill: url(#uuid-7ac756ed-3696-4160-a188-fa4e0b23629c);
      }
    </style>
    <linearGradient id="uuid-6a8f3784-f58c-427c-af61-8bf990c386ba" x1="21.1" y1="19.73" x2="21.1" y2="-22.47" gradientTransform="translate(0 19.62) scale(1 -1)" gradientUnits="userSpaceOnUse">
      <stop offset="0" stop-color="#64ccef"/>
      <stop offset="1" stop-color="#406ab3"/>
    </linearGradient>
    <linearGradient id="uuid-522b18a4-60d0-4ce4-9872-bdd04a7181f0" x1="21.1" y1="-.21" x2="21.1" y2="31.65" gradientTransform="matrix(1,0,0,1,0,0)" xlink:href="#uuid-6a8f3784-f58c-427c-af61-8bf990c386ba"/>
    <linearGradient id="uuid-6eb5154c-8f60-49f4-a439-6e1e10a6f01f" x1="15.4" y1="34.23" x2="15.4" y2="30.72" gradientTransform="translate(0 43.62) scale(1 -1)" xlink:href="#uuid-6a8f3784-f58c-427c-af61-8bf990c386ba"/>
    <linearGradient id="uuid-7ac756ed-3696-4160-a188-fa4e0b23629c" x1="21.05" y1="27.52" x2="21.05" y2="24" gradientTransform="translate(0 43.62) scale(1 -1)" xlink:href="#uuid-6a8f3784-f58c-427c-af61-8bf990c386ba"/>
    <linearGradient id="uuid-7cff7a65-8b95-4d95-8f48-4a9b519076bc" x1="21.05" y1="20.8" x2="21.05" y2="17.28" gradientTransform="translate(0 43.62) scale(1 -1)" xlink:href="#uuid-6a8f3784-f58c-427c-af61-8bf990c386ba"/>
  </defs>
  <path class="uuid-d060900a-04c0-40d0-abe4-cd8ec880075d" d="M42.2,32.31c0,.9-.5,1.7-1.2,2.2l-9.6,5.8c-.1,0-.1.1-.2.1-1.8.8-3.7,1.5-5.6,2l-6.8,1.8c-1.4.4-2.9.3-4.3-.1l-13.2-4.4c-.8-.2-1.3-.9-1.3-1.7v-7.2c0-1,.8-1.8,1.8-1.8h6.4c3.5,0,6.9.8,10,2.5l6.3,3.3c.5.2.8.7.9,1.2.1.2.1.3.1.5,0,1.4-1.1,2.5-2.6,2.5-.3,0-.5,0-.8-.1s-2-1-2.4-1.2h0l-7.5-3.4-.4.9,9.8,4.5.1.1c.4.1.8.1,1.2.1,1.9,0,3.4-1.5,3.4-3.3,0-.4-.1-.8-.2-1.1.2,0,.4,0,.5-.1l12-5.4c1.3-.6,2.8,0,3.4,1.2.1.4.2.7.2,1.1Z"/>
  <g id="uuid-db478376-9aeb-4d62-8468-bc9a06a78d73" data-name="&amp;lt;Envelope&amp;gt;">
    <path class="uuid-f8a790a5-d950-4a24-a7ff-a0d27bd21cca" d="M4.2,0v27.42h3.5V3.4h26.9v25.06H14.88c1.16.38,2.28.86,3.37,1.46l3.7,1.94h9.06l6.99-3.15V0H4.2Z"/>
  </g>
  <rect class="uuid-27ef3e14-3b60-42c2-99c2-949074d0e24b" x="9.7" y="9.36" width="11.4" height="3.5"/>
  <rect class="uuid-3fb6147f-1431-4722-826c-0246978f4b42" x="9.7" y="16.06" width="22.7" height="3.5"/>
  <rect class="uuid-5004737a-64e3-4834-afe7-a49f3b011e56" x="9.7" y="22.76" width="22.7" height="3.5"/>
</svg>