<?xml version="1.0" encoding="utf-8"?>
<!-- Generator: Adobe Illustrator 28.1.0, SVG Export Plug-In . SVG Version: 6.00 Build 0)  -->
<svg version="1.1" id="Magnifying_Glass" xmlns="http://www.w3.org/2000/svg" xmlns:xlink="http://www.w3.org/1999/xlink" x="0px"
	 y="0px" viewBox="0 0 50 50" enable-background="new 0 0 50 50" xml:space="preserve">
<g id="SVGRepo_iconCarrier">
	<g>
		<g>
			<path fill="#DC6D04" stroke="#DC6D04" stroke-width="4.461106e-04" stroke-miterlimit="2.3241" d="M20.3,2.7
				c-9.5,0-17.1,3.1-17.1,6.8v6.8c0,3.8,7.7,6.8,17.1,6.8c9.5,0,17.1-3.1,17.1-6.8V9.5C37.4,5.8,29.7,2.7,20.3,2.7z M20.3,14.7
				c-9.4,0-15.4-3-15.4-5.1c0-2.1,6-5.1,15.4-5.1c9.4,0,15.4,3,15.4,5.1C35.7,11.6,29.7,14.7,20.3,14.7z"/>
			<path fill="#DC6D04" stroke="#DC6D04" stroke-width="4.461106e-04" stroke-miterlimit="2.3241" d="M37.4,24.6v-4.8
				c0,3.8-7.7,6.8-17.1,6.8c-9.5,0-17.1-3.1-17.1-6.8v6.8c0,3.8,7.7,6.8,17.1,6.8c1.9,0,3.7-0.1,5.3-0.3
				C27.2,28.2,31.9,24.6,37.4,24.6z"/>
			<path fill="#DC6D04" stroke="#DC6D04" stroke-width="4.461106e-04" stroke-miterlimit="2.3241" d="M25,36.9c0-0.1,0-0.2,0-0.3
				c-1.5,0.2-3.1,0.3-4.8,0.3c-9.5,0-17.1-3.1-17.1-6.8v6.8c0,3.8,7.7,6.8,17.1,6.8c2.3,0,4.5-0.2,6.5-0.5
				C25.7,41.4,25,39.2,25,36.9z"/>
			<path fill="#DC6D04" stroke="#DC6D04" stroke-width="4.461106e-04" stroke-miterlimit="2.3241" d="M37.4,26.5
				c-5.7,0-10.4,4.7-10.4,10.4c0,5.7,4.7,10.4,10.4,10.4c5.7,0,10.4-4.6,10.4-10.4C47.8,31.2,43.1,26.5,37.4,26.5z M41.5,42.5h-1.6
				l-0.2-1.7l-4.2-7.2c-0.2,0-0.4,0-0.5-0.1c-2.7,1.6-3.9,2.5-4.3,4.2c-0.4-1.7,0-3.2,3.4-5.4c0-0.4,0.1-0.8,0.5-1l0.7-0.4
				c0.3-0.2,0.7-0.2,1,0l2.2-1.5l1.4-0.8l1.1,1.9l-1.4,0.8c0,0-0.5-0.1-2.5,1c0,0.2-0.1,0.4-0.2,0.5l4.2,7.2l1.3,1L41.5,42.5z"/>
		</g>
	</g>
</g>
</svg>
