<?xml version="1.0" encoding="utf-8"?>
<!-- Generator: Adobe Illustrator 28.1.0, SVG Export Plug-In . SVG Version: 6.00 Build 0)  -->
<svg version="1.1" id="Layer_1" xmlns="http://www.w3.org/2000/svg" xmlns:xlink="http://www.w3.org/1999/xlink" x="0px" y="0px"
	 viewBox="0 0 50 50" style="enable-background:new 0 0 50 50;" xml:space="preserve">
<g style="display:none;">
	<linearGradient id="SVGID_1_" gradientUnits="userSpaceOnUse" x1="24.8841" y1="8.1112" x2="24.8841" y2="41.4681">
		<stop  offset="0" style="stop-color:#5CC7D6"/>
		<stop  offset="1" style="stop-color:#4173B6"/>
	</linearGradient>
	<path style="display:inline;fill:url(#SVGID_1_);" d="M35.2,22.4h6.3v-1.6h-6.3v-3.2h-1.6v3.2h-7.9v-3.2h-1.6v3.2h-7.9v-3.2h-1.6
		v3.2H8.2v1.6h6.3v4.8H8.2v1.6h6.3v4.8H8.2v1.6h6.3v3.2h1.6v-3.2h7.9v3.2h1.6v-3.2h7.9v3.2h1.6v-3.2h6.3v-1.6h-6.3v-4.8h6.3v-1.6
		h-6.3V22.4z M24.1,33.5h-7.9v-4.8h7.9V33.5z M24.1,27.2h-7.9v-4.8h7.9V27.2z M33.6,33.5h-7.9v-4.8h7.9V33.5z M33.6,27.2h-7.9v-4.8
		h7.9V27.2z"/>
	
		<linearGradient id="SVGID_00000090261027656487486110000016967373466748178583_" gradientUnits="userSpaceOnUse" x1="24.8841" y1="5.5485" x2="24.8841" y2="43.7779">
		<stop  offset="0" style="stop-color:#5CC7D6"/>
		<stop  offset="1" style="stop-color:#4173B6"/>
	</linearGradient>
	<path style="display:inline;fill:url(#SVGID_00000090261027656487486110000016967373466748178583_);" d="M2.4,5.5v38.1h45V5.5H2.4z
		 M43.9,40.1H5.8V15.8h38.1V40.1z M43.9,12.4H5.8V8.9h38.1V12.4z"/>
</g>
<g>
	
		<linearGradient id="SVGID_00000009578826352904541100000013564200611359643820_" gradientUnits="userSpaceOnUse" x1="35.6001" y1="2.1303" x2="35.6001" y2="47.2107">
		<stop  offset="0" style="stop-color:#F57F20"/>
		<stop  offset="1" style="stop-color:#FCB645"/>
	</linearGradient>
	<path style="fill:url(#SVGID_00000009578826352904541100000013564200611359643820_);" d="M45.1,36l2.6-0.7l-2.3-8.4l-2.6,0.7
		c-0.2-0.3-0.4-0.5-0.7-0.8c-0.2-0.2-0.5-0.5-0.8-0.7l0.7-2.6l-1.8-0.5l-1.5,5.4c0.3,0.2,0.6,0.5,0.9,0.8c0.4,0.4,0.7,0.8,1,1.2
		l0.7,1.1l1.7-0.4l0.5,1.8l-1.7,0.4l-0.1,1.2c0,1.1-0.3,2.1-0.8,3l-0.6,1.1l1.2,1.2l-1.3,1.3L39.1,40L38,40.6
		c-0.9,0.5-1.9,0.8-3,0.8l-1.2,0.1l-0.4,1.7l-1.8-0.5L32,41l-1.1-0.7c-0.4-0.3-0.9-0.6-1.2-1c-0.3-0.3-0.5-0.6-0.8-0.9l-5.4,1.5
		l0.5,1.8l2.6-0.7c0.2,0.3,0.4,0.5,0.7,0.8c0.2,0.2,0.5,0.5,0.8,0.7L27.3,45l8.4,2.2l0.7-2.6c0.7-0.1,1.3-0.3,2-0.5l1.9,1.9l6.1-6.1
		L44.6,38C44.8,37.3,45,36.7,45.1,36z"/>
	
		<linearGradient id="SVGID_00000175287674063176755320000011887515857633291408_" gradientUnits="userSpaceOnUse" x1="20.2629" y1="2.1302" x2="20.2629" y2="47.2122">
		<stop  offset="0" style="stop-color:#F57F20"/>
		<stop  offset="1" style="stop-color:#FCB645"/>
	</linearGradient>
	<path style="fill:url(#SVGID_00000175287674063176755320000011887515857633291408_);" d="M28.9,31.1c1-0.8,1.9-1.6,2.6-2.6l3.5,0.9
		l2.8-10.6L34.4,18c-0.2-1.2-0.5-2.4-1-3.6l2.5-2.5l-7.7-7.7l-2.5,2.5c-0.6-0.2-1.2-0.4-1.8-0.6c-0.6-0.2-1.2-0.3-1.8-0.4l-0.9-3.5
		L10.6,5.1l0.9,3.5c-1,0.8-1.9,1.6-2.6,2.6l-3.5-0.9L2.7,20.8l3.5,0.9c0.2,1.2,0.5,2.4,1,3.6l-2.5,2.5l7.7,7.7l2.5-2.5
		c0.6,0.2,1.2,0.4,1.7,0.6c0.6,0.2,1.2,0.3,1.8,0.4l0.9,3.5l10.6-2.8L28.9,31.1z M26.1,29L25,29.7l0.7,2.5l-4,1.1L21,30.7l-1.2-0.1
		c-0.8,0-1.6-0.2-2.3-0.4c-0.7-0.2-1.5-0.5-2.2-0.9l-1.1-0.6l-1.9,1.9l-2.9-2.9l1.9-1.9l-0.6-1.1c-0.7-1.4-1.2-3-1.2-4.6L9.4,19
		l-2.5-0.7l1.1-4l2.5,0.7l0.7-1.1c0.8-1.3,2-2.5,3.3-3.3l1.1-0.7l-0.7-2.5l4-1.1l0.7,2.5L20.7,9c0.8,0,1.6,0.2,2.3,0.4
		c0.8,0.2,1.5,0.5,2.2,0.9l1.1,0.6l1.9-1.9l2.9,2.9l-1.9,1.9l0.6,1.1c0.7,1.4,1.2,3,1.2,4.5l0.1,1.2l2.5,0.7l-1.1,4l-2.5-0.7
		l-0.7,1.1C28.6,27,27.4,28.1,26.1,29z"/>
	
		<linearGradient id="SVGID_00000040553879256243835370000000553718546477973421_" gradientUnits="userSpaceOnUse" x1="20.2614" y1="2.1301" x2="20.2614" y2="47.2108">
		<stop  offset="0" style="stop-color:#F57F20"/>
		<stop  offset="1" style="stop-color:#FCB645"/>
	</linearGradient>
	<path style="fill:url(#SVGID_00000040553879256243835370000000553718546477973421_);" d="M22.3,12.3c-0.7-0.2-1.3-0.3-2-0.3
		c-3.5,0-6.6,2.4-7.5,5.8c-0.5,2-0.3,4.1,0.8,5.9c1,1.8,2.7,3.1,4.7,3.6c0.7,0.2,1.3,0.3,2,0.3c3.5,0,6.6-2.4,7.5-5.8
		C28.9,17.7,26.4,13.4,22.3,12.3z M24.5,21c-0.5,1.9-2.3,3.3-4.3,3.3c-0.4,0-0.8-0.1-1.1-0.2c-1.1-0.3-2.1-1-2.7-2.1
		c-0.6-1-0.7-2.2-0.4-3.3c0.5-1.9,2.3-3.3,4.2-3.3c0.4,0,0.8,0.1,1.1,0.2C23.7,16.2,25.1,18.6,24.5,21z"/>
	
		<linearGradient id="SVGID_00000138568588925057659890000006672246804934717353_" gradientUnits="userSpaceOnUse" x1="34.7184" y1="2.125" x2="34.7184" y2="47.2146">
		<stop  offset="0" style="stop-color:#F57F20"/>
		<stop  offset="1" style="stop-color:#FCB645"/>
	</linearGradient>
	<path style="fill:url(#SVGID_00000138568588925057659890000006672246804934717353_);" d="M32.5,32.1c-1.2,1.2-1.2,3.2,0,4.4
		c1.2,1.2,3.2,1.2,4.4,0c1.2-1.2,1.2-3.2,0-4.4C35.7,30.9,33.7,30.9,32.5,32.1z"/>
</g>
<g style="display:none;">
	
		<linearGradient id="SVGID_00000032627889858893630390000001243443914644451508_" gradientUnits="userSpaceOnUse" x1="25.1821" y1="40.3544" x2="25.1821" y2="9.2602">
		<stop  offset="0" style="stop-color:#EE7523"/>
		<stop  offset="1" style="stop-color:#F5AD24"/>
	</linearGradient>
	<polygon style="display:inline;fill:url(#SVGID_00000032627889858893630390000001243443914644451508_);" points="21,27 25.2,30.5 
		29.3,27 37,33.4 40.8,33.4 40.8,32 32,24.8 40.8,17.5 40.8,16.1 37,16.1 25.2,26 13.3,16.1 9.6,16.1 9.6,17.5 18.3,24.7 9.6,32 
		9.6,33.4 13.3,33.4 	"/>
	
		<linearGradient id="SVGID_00000165937454795584331840000017863853526068562362_" gradientUnits="userSpaceOnUse" x1="25.1821" y1="41.6594" x2="25.1821" y2="7.9425">
		<stop  offset="0" style="stop-color:#EE7523"/>
		<stop  offset="1" style="stop-color:#F5AD24"/>
	</linearGradient>
	<path style="display:inline;fill:url(#SVGID_00000165937454795584331840000017863853526068562362_);" d="M2.7,7.8v33.8h45V7.8H2.7z
		 M44.2,38.2H6.1V11.3h38.1V38.2z"/>
</g>
<g style="display:none;">
	
		<linearGradient id="SVGID_00000075163219124868128790000004643636134090330291_" gradientUnits="userSpaceOnUse" x1="18.2692" y1="2.4855" x2="18.2692" y2="47.4213">
		<stop  offset="0" style="stop-color:#64CCEF"/>
		<stop  offset="1" style="stop-color:#406AB3"/>
	</linearGradient>
	<path style="display:inline;fill:url(#SVGID_00000075163219124868128790000004643636134090330291_);" d="M8.6,27.9
		c0-0.2,0-0.3,0-0.5c0-9,7.3-16.3,16.2-16.4l-2.7,2.7l2.5,2.5l4.6-4.6l0,0l2.3-2.3l-6.9-6.9l-2.5,2.5l2.7,2.7
		C14,7.5,5.3,16.2,5.1,26.9l1.8,0.5L8.6,27.9z"/>
	
		<linearGradient id="SVGID_00000131335350001620631830000014546185057369602981_" gradientUnits="userSpaceOnUse" x1="18.998" y1="2.4855" x2="18.998" y2="47.4214">
		<stop  offset="0" style="stop-color:#64CCEF"/>
		<stop  offset="1" style="stop-color:#406AB3"/>
	</linearGradient>
	<path style="display:inline;fill:url(#SVGID_00000131335350001620631830000014546185057369602981_);" d="M33.6,41.3
		c-2.5,1.6-5.5,2.5-8.6,2.5c-6,0-11.2-3.2-14.1-8l3.7,1l0.9-3.4L6,30.8l-0.4,1.3l0,0l-2.2,8.2l3.4,0.9l1-3.7
		c3.5,5.9,9.8,9.8,17.1,9.8c3.5,0,6.7-0.9,9.6-2.5L34.1,43L33.6,41.3z"/>
	
		<linearGradient id="SVGID_00000034087606587066391550000012591932164980598682_" gradientUnits="userSpaceOnUse" x1="39.816" y1="2.4855" x2="39.816" y2="47.4211">
		<stop  offset="0" style="stop-color:#64CCEF"/>
		<stop  offset="1" style="stop-color:#406AB3"/>
	</linearGradient>
	<path style="display:inline;fill:url(#SVGID_00000034087606587066391550000012591932164980598682_);" d="M46.9,39.5L46,36.1l-3.7,1
		c1.6-2.9,2.6-6.2,2.6-9.8c0-7.2-3.8-13.5-9.6-17l-1.3,1.3l-1.2,1.2c5.1,2.8,8.7,8.2,8.7,14.5c0,2.9-0.8,5.6-2.1,8l-1-3.7l-3.4,0.9
		l1.7,6.3l0,0l0.8,3.1l1.3-0.3l0,0L46.9,39.5z"/>
	
		<linearGradient id="SVGID_00000075155154746423127120000000453878569193229976_" gradientUnits="userSpaceOnUse" x1="24.9652" y1="2.4856" x2="24.9652" y2="47.4212">
		<stop  offset="0" style="stop-color:#64CCEF"/>
		<stop  offset="1" style="stop-color:#406AB3"/>
	</linearGradient>
	<path style="display:inline;fill:url(#SVGID_00000075155154746423127120000000453878569193229976_);" d="M17.5,34.8h14.9V19.9H17.5
		V34.8z M21,23.4h7.9v7.9H21V23.4z"/>
</g>
<g style="display:none;">
	
		<linearGradient id="SVGID_00000003817305361327062810000004223275012356089505_" gradientUnits="userSpaceOnUse" x1="25.1821" y1="2.2507" x2="25.1821" y2="47.4879">
		<stop  offset="0" style="stop-color:#72C05A"/>
		<stop  offset="1" style="stop-color:#3AB666"/>
	</linearGradient>
	<path style="display:inline;fill:url(#SVGID_00000003817305361327062810000004223275012356089505_);" d="M25.2,2.3
		C12.8,2.3,2.7,12.3,2.7,24.8c0,12.4,10.1,22.5,22.5,22.5c12.4,0,22.5-10.1,22.5-22.5C47.7,12.3,37.6,2.3,25.2,2.3z M25.2,43.8
		c-10.5,0-19-8.5-19-19c0-10.5,8.5-19,19-19c10.5,0,19,8.5,19,19C44.2,35.2,35.7,43.8,25.2,43.8z"/>
	
		<linearGradient id="SVGID_00000025402658539028450950000018005720790604012959_" gradientUnits="userSpaceOnUse" x1="25.1817" y1="2.2789" x2="25.1817" y2="47.5199">
		<stop  offset="0" style="stop-color:#72C05A"/>
		<stop  offset="1" style="stop-color:#3AB666"/>
	</linearGradient>
	<path style="display:inline;fill:url(#SVGID_00000025402658539028450950000018005720790604012959_);" d="M30.4,12.6H20v6.9h-6.9
		v10.4H20v6.9h10.4v-6.9h6.9V19.6h-6.9V12.6z M33.8,23v3.5h-6.9v6.9h-3.5v-6.9h-6.9V23h6.9v-6.9h3.5V23H33.8z"/>
</g>
<g style="display:none;">
	
		<linearGradient id="SVGID_00000044861539067340042660000014572554497204126337_" gradientUnits="userSpaceOnUse" x1="25.1821" y1="1.9908" x2="25.1821" y2="46.0083">
		<stop  offset="0" style="stop-color:#A988BF"/>
		<stop  offset="1" style="stop-color:#7854A3"/>
	</linearGradient>
	<path style="display:inline;fill:url(#SVGID_00000044861539067340042660000014572554497204126337_);" d="M37.3,29.7
		c1.5-2.8,2.3-5.8,2.3-9c0-10.2-8.3-18.5-18.5-18.5C11,2.3,2.7,10.5,2.7,20.7c0,10.2,8.3,18.5,18.5,18.5c3.2,0,6.2-0.8,9-2.3
		l10.4,10.4l7.2-7.2L37.3,29.7z M40.5,42.4l-9.9-9.9l-1.2,0.8c-2.5,1.6-5.3,2.5-8.3,2.5c-8.3,0-15.1-6.8-15.1-15.1
		c0-8.3,6.8-15.1,15.1-15.1c8.3,0,15.1,6.8,15.1,15.1c0,3-0.9,5.8-2.5,8.3L33,30.2l9.9,9.9L40.5,42.4z"/>
	
		<linearGradient id="SVGID_00000065057571595968752210000012117366913355891372_" gradientUnits="userSpaceOnUse" x1="21.1745" y1="1.9898" x2="21.1745" y2="46.0087">
		<stop  offset="0" style="stop-color:#A988BF"/>
		<stop  offset="1" style="stop-color:#7854A3"/>
	</linearGradient>
	<path style="display:inline;fill:url(#SVGID_00000065057571595968752210000012117366913355891372_);" d="M21.2,9.4
		c-6.3,0-11.4,5.1-11.4,11.4c0,6.3,5.1,11.4,11.4,11.4c6.3,0,11.4-5.1,11.4-11.4C32.5,14.5,27.4,9.4,21.2,9.4z M21.2,28.7
		c-4.4,0-8-3.6-8-8c0-4.4,3.6-8,8-8c4.4,0,8,3.6,8,8C29.1,25.1,25.6,28.7,21.2,28.7z"/>
</g>
<g style="display:none;">
	
		<linearGradient id="SVGID_00000135670286922987901960000014610083587836684689_" gradientUnits="userSpaceOnUse" x1="32.7474" y1="2.2593" x2="32.7474" y2="47.2779">
		<stop  offset="0" style="stop-color:#8DD1C4"/>
		<stop  offset="1" style="stop-color:#4EBEA7"/>
	</linearGradient>
	<path style="display:inline;fill:url(#SVGID_00000135670286922987901960000014610083587836684689_);" d="M34.4,25.7
		c-1.8,1-4.1,1.9-7,2.4c-0.9,1.1-1.4,2.4-1.5,3.7c4.9-0.5,9-2.1,11.8-4.2v2.6c0,2.6-4,5.4-10.1,6.5c0.1,0.1,0.2,0.3,0.3,0.4
		c1.2,1.2,2.8,1.9,4.5,2c2.7-0.9,4.9-2.2,6.5-3.8c0.5-0.9,0.7-2,0.7-3.1c0-1.8-0.7-3.5-2-4.8C36.7,26.6,35.6,26,34.4,25.7z"/>
	
		<linearGradient id="SVGID_00000117678856041728851530000018182728845419358100_" gradientUnits="userSpaceOnUse" x1="21.9369" y1="2.2475" x2="21.9369" y2="47.2665">
		<stop  offset="0" style="stop-color:#8DD1C4"/>
		<stop  offset="1" style="stop-color:#4EBEA7"/>
	</linearGradient>
	<path style="display:inline;fill:url(#SVGID_00000117678856041728851530000018182728845419358100_);" d="M18.1,23.1
		c0.7-1.1,1.5-2.1,2.4-3c0.1-0.1,0.2-0.2,0.3-0.3c-8.7-0.3-14.6-3.8-14.6-7c0-3.3,6.5-7,15.8-7c9.3,0,15.8,3.7,15.8,7
		c0,0.9-0.5,1.8-1.3,2.6c1.7,0.4,3.3,1,4.8,1.8v-4.4c0-5.9-8.5-10.5-19.3-10.5C11.1,2.2,2.7,6.9,2.7,12.8v17.5
		c0,5,6.2,9.1,14.8,10.2c-0.6-1.2-1.1-2.5-1.5-3.8c-6-1.1-9.8-3.9-9.8-6.5v-2.6c2.3,1.7,5.5,3.1,9.3,3.8c0.1-1.2,0.2-2.3,0.5-3.5
		c-6-1.1-9.8-3.9-9.8-6.4v-2.6C8.9,21,13.1,22.5,18.1,23.1z"/>
	
		<linearGradient id="SVGID_00000040537460405897314890000015470645680227010695_" gradientUnits="userSpaceOnUse" x1="33.2912" y1="2.2592" x2="33.2912" y2="47.278">
		<stop  offset="0" style="stop-color:#8DD1C4"/>
		<stop  offset="1" style="stop-color:#4EBEA7"/>
	</linearGradient>
	<path style="display:inline;fill:url(#SVGID_00000040537460405897314890000015470645680227010695_);" d="M43.7,40.8
		c1.9-2.4,2.9-5.4,2.9-8.5c0-3.7-1.4-7.2-4.1-9.8c-2.6-2.6-6.1-4.1-9.8-4.1c-3.7,0-7.2,1.4-9.8,4.1c-5.4,5.4-5.4,14.2,0,19.6
		c2.6,2.6,6.1,4.1,9.8,4.1c3.1,0,6.1-1,8.5-2.9l4,4l2.5-2.5L43.7,40.8z M40,39.6c-2,2-4.5,3-7.3,3c-2.8,0-5.4-1.1-7.3-3
		c-4-4-4-10.6,0-14.6c2-2,4.6-3,7.3-3c2.8,0,5.4,1.1,7.3,3c2,2,3,4.6,3,7.3C43.1,35.1,42,37.7,40,39.6z"/>
</g>
<g style="display:none;">
	
		<linearGradient id="SVGID_00000154391966800343801190000016971079435230644633_" gradientUnits="userSpaceOnUse" x1="25.1821" y1="2.2507" x2="25.1821" y2="47.4061">
		<stop  offset="0" style="stop-color:#DE4D52"/>
		<stop  offset="1" style="stop-color:#BD2025"/>
	</linearGradient>
	<path style="display:inline;fill:url(#SVGID_00000154391966800343801190000016971079435230644633_);" d="M33.8,9.2V2.3H16.5v6.9
		H4.4v3.5h12.1h17.3H46V9.2H33.8z M20,9.2V5.7h10.4v3.5H20z"/>
	
		<linearGradient id="SVGID_00000152973972823994555470000001469283994194832788_" gradientUnits="userSpaceOnUse" x1="25.182" y1="2.2461" x2="25.182" y2="47.3998">
		<stop  offset="0" style="stop-color:#DE4D52"/>
		<stop  offset="1" style="stop-color:#BD2025"/>
	</linearGradient>
	<polygon style="display:inline;fill:url(#SVGID_00000152973972823994555470000001469283994194832788_);" points="37.4,43.8 
		13,43.8 11.5,16 8,16 9.7,47.3 40.7,47.3 42.3,16 38.8,16 	"/>
	
		<linearGradient id="SVGID_00000122698816533696975120000003657119060402121135_" gradientUnits="userSpaceOnUse" x1="25.1808" y1="2.2444" x2="25.1808" y2="47.3997">
		<stop  offset="0" style="stop-color:#DE4D52"/>
		<stop  offset="1" style="stop-color:#BD2025"/>
	</linearGradient>
	
		<rect x="23.4" y="16.1" style="display:inline;fill:url(#SVGID_00000122698816533696975120000003657119060402121135_);" width="3.5" height="24.2"/>
	
		<linearGradient id="SVGID_00000161589802643117466210000012380211748869385872_" gradientUnits="userSpaceOnUse" x1="17.8895" y1="2.2444" x2="17.8895" y2="47.3997">
		<stop  offset="0" style="stop-color:#DE4D52"/>
		<stop  offset="1" style="stop-color:#BD2025"/>
	</linearGradient>
	<polygon style="display:inline;fill:url(#SVGID_00000161589802643117466210000012380211748869385872_);" points="19.3,16.1 
		15.8,16.1 16.5,40.3 19.9,40.3 	"/>
	
		<linearGradient id="SVGID_00000065042990166787954860000010528665345500690839_" gradientUnits="userSpaceOnUse" x1="32.4733" y1="2.2444" x2="32.4733" y2="47.3997">
		<stop  offset="0" style="stop-color:#DE4D52"/>
		<stop  offset="1" style="stop-color:#BD2025"/>
	</linearGradient>
	<polygon style="display:inline;fill:url(#SVGID_00000065042990166787954860000010528665345500690839_);" points="31.1,16.1 
		30.4,40.3 33.9,40.3 34.5,16.1 	"/>
</g>
<linearGradient id="SVGID_00000106148189346416326630000009447119906087026566_" gradientUnits="userSpaceOnUse" x1="25.1821" y1="2.037" x2="25.1821" y2="47.3851">
	<stop  offset="0" style="stop-color:#F4E024"/>
	<stop  offset="1" style="stop-color:#F5AD24"/>
</linearGradient>
<path style="display:none;fill:url(#SVGID_00000106148189346416326630000009447119906087026566_);" d="M29,16.7l7.3-14.5H17.7
	L5.2,27h14.8L9.7,47.3h3.5l32-30.5H29z M25.6,23.6H10.8l9-17.9h10.9l-7.3,14.5h13.2L18.6,37.3L25.6,23.6z"/>
<linearGradient id="SVGID_00000000932489538523065950000009005422688689513630_" gradientUnits="userSpaceOnUse" x1="25.1821" y1="2.091" x2="25.1821" y2="46.2818">
	<stop  offset="0" style="stop-color:#FEE04F"/>
	<stop  offset="1" style="stop-color:#F99F21"/>
</linearGradient>
<path style="display:none;fill:url(#SVGID_00000000932489538523065950000009005422688689513630_);" d="M35.2,2.2L6,31.4l-0.4,0.3
	l-3,15.6l15.5-3l29.6-29.6L35.2,2.2z M16.5,41.2L6.9,43l1.8-9.6l16.9-16.9l2.7,2.7L11,36.5l2.4,2.4l17.3-17.3l2.7,2.7L16.5,41.2z
	 M35.8,21.9L28,14.2l2.4-2.4l7.7,7.7L35.8,21.9z M32.8,9.4L35.2,7l7.7,7.7l-2.4,2.4L32.8,9.4z"/>
</svg>
