<?xml version="1.0" encoding="utf-8"?>
<!-- Generator: Adobe Illustrator 28.1.0, SVG Export Plug-In . SVG Version: 6.00 Build 0)  -->
<svg version="1.1" id="Layer_1" xmlns="http://www.w3.org/2000/svg" xmlns:xlink="http://www.w3.org/1999/xlink" x="0px" y="0px"
	 viewBox="0 0 50 50" enable-background="new 0 0 50 50" xml:space="preserve">
<g>
	<g display="none">
		<g display="inline">
			
				<linearGradient id="SVGID_1_F8D9J0K7" gradientUnits="userSpaceOnUse" x1="45" y1="16.6391" x2="45" y2="6.7081" gradientTransform="matrix(1 0 0 -1 0 50)">
				<stop  offset="0" style="stop-color:#0070C0"/>
				<stop  offset="1" style="stop-color:#09C4FF"/>
			</linearGradient>
			<polygon fill="url(#SVGID_1_F8D9J0K7)" points="50,40.4 47.1,43.3 44.7,40.9 44.3,40.4 42.2,38.4 42.2,38.4 40,36.2 42.9,33.4 			"/>
		</g>
		
			<linearGradient id="SVGID_00000157273561613173908400000011267383606595118980_" gradientUnits="userSpaceOnUse" x1="35.6604" y1="12.4395" x2="44.2705" y2="3.8296" gradientTransform="matrix(1 0 0 -1 0 50)">
			<stop  offset="0" style="stop-color:#102B51"/>
			<stop  offset="1" style="stop-color:#163B74"/>
		</linearGradient>
		<polygon display="inline" fill="url(#SVGID_00000157273561613173908400000011267383606595118980_)" points="47.1,43.3 42.9,47.5 
			42.7,47.3 40.5,45.1 40.1,44.6 42.2,42.5 34.8,42.5 34.8,38.4 42.2,38.4 44.3,40.4 44.7,40.9 		"/>
	</g>
</g>
<g>
	<g display="none">
		<g display="inline">
			
				<linearGradient id="SVGID_00000054225622097782497020000010831597592268709253_" gradientUnits="userSpaceOnUse" x1="41.85" y1="41.7" x2="41.85" y2="31.7691" gradientTransform="matrix(1 0 0 -1 0 50)">
				<stop  offset="0" style="stop-color:#0070C0"/>
				<stop  offset="1" style="stop-color:#09C4FF"/>
			</linearGradient>
			<polygon fill="url(#SVGID_00000054225622097782497020000010831597592268709253_)" points="46.8,15.4 44,18.3 41.5,15.8 
				41.1,15.4 39,13.3 39.1,13.3 36.9,11.2 39.8,8.3 			"/>
		</g>
		
			<linearGradient id="SVGID_00000098914295065471176840000002583802979354053557_" gradientUnits="userSpaceOnUse" x1="32.5" y1="37.5" x2="41.11" y2="28.89" gradientTransform="matrix(1 0 0 -1 0 50)">
			<stop  offset="0" style="stop-color:#102B51"/>
			<stop  offset="1" style="stop-color:#163B74"/>
		</linearGradient>
		<polygon display="inline" fill="url(#SVGID_00000098914295065471176840000002583802979354053557_)" points="44,18.3 39.8,22.5 
			39.6,22.2 37.3,20 36.9,19.6 39.1,17.4 31.7,17.4 31.7,13.3 39,13.3 41.1,15.4 41.5,15.8 		"/>
	</g>
</g>
<g>
	<g display="none">
		<g display="inline">
			
				<linearGradient id="SVGID_00000100380271391116565480000013139339001800353978_" gradientUnits="userSpaceOnUse" x1="42.7" y1="40.5635" x2="42.7" y2="30.6325" gradientTransform="matrix(1 0 0 -1 0 50)">
				<stop  offset="0" style="stop-color:#0070C0"/>
				<stop  offset="1" style="stop-color:#09C4FF"/>
			</linearGradient>
			<polygon fill="url(#SVGID_00000100380271391116565480000013139339001800353978_)" points="47.7,16.5 44.8,19.4 42.4,16.9 
				41.9,16.5 39.9,14.5 39.9,14.5 37.7,12.3 40.6,9.4 			"/>
		</g>
		
			<linearGradient id="SVGID_00000103223336291408527420000005385989489123434117_" gradientUnits="userSpaceOnUse" x1="33.375" y1="36.375" x2="41.985" y2="27.7649" gradientTransform="matrix(1 0 0 -1 0 50)">
			<stop  offset="0" style="stop-color:#102B51"/>
			<stop  offset="1" style="stop-color:#163B74"/>
		</linearGradient>
		<polygon display="inline" fill="url(#SVGID_00000103223336291408527420000005385989489123434117_)" points="44.8,19.4 40.6,23.6 
			40.4,23.4 38.2,21.1 37.7,20.7 39.9,18.5 32.5,18.5 32.5,14.5 39.9,14.5 41.9,16.5 42.4,16.9 		"/>
	</g>
</g>
<g>
	
		<linearGradient id="SVGID_00000048485813075070534760000010904484895096982454_" gradientUnits="userSpaceOnUse" x1="2.5" y1="27.85" x2="47.6" y2="27.85" gradientTransform="matrix(1 0 0 -1 0 50)">
		<stop  offset="0" style="stop-color:#00599C"/>
		<stop  offset="1" style="stop-color:#00C0F2"/>
	</linearGradient>
	<path display="none" fill="url(#SVGID_00000048485813075070534760000010904484895096982454_)" d="M38.3,19.9
		c-0.3,0-0.5-0.3-0.4-0.5c0-0.4,0.1-0.8,0.1-1.2c0-5.8-4.7-10.6-10.6-10.6c-4.3,0-8,2.6-9.7,6.3c-0.1,0.3-0.4,0.4-0.7,0.3
		c-1.3-0.6-2.9-0.7-4.6-0.1c-2.4,0.8-3.9,3.1-3.8,5.6c0,0.2,0,0.3,0,0.5s-0.1,0.4-0.3,0.5c-3.4,1.3-5.8,4.2-5.8,7.6
		c0,4.6,4.5,8.4,10.1,8.4H37c5.8,0,10.6-3.8,10.6-8.4C47.5,24,43.5,20.4,38.3,19.9z M38.1,34.8H11.3l0,0c-2.4,0-4.5-1.2-5.6-2.9l0,0
		c-0.8-1-1.2-2.2-1.2-3.6c0-2.8,1.9-5.1,4.5-5.9c0.5-0.1,1.1-0.2,1.7-0.2c0.1,0,0.3,0,0.4,0c-0.5-0.6-0.8-1.4-0.8-2.2
		c0-0.1,0-0.1,0-0.2c0-2.3,2-4.2,4.4-4.2c0.8,0,1.5,0.2,2.1,0.5c0.8,0.4,1.4,1,1.8,1.7c0-0.7,0.1-1.5,0.4-2.1
		c1.1-3.6,4.3-6.2,8.3-6.2c4.8,0,8.6,3.9,8.6,8.6c0,0.6-0.1,1.1-0.2,1.7c-0.2,0.9-0.5,1.8-1,2.6c0.7-0.3,1.5-0.5,2.4-0.6l0,0
		c0.3,0,0.6,0,0.9,0c4.2,0,7.6,2.9,7.6,6.5C45.7,31.9,42.3,34.8,38.1,34.8z"/>
	
		<linearGradient id="SVGID_00000076566177809161064200000015495915340544528038_" gradientUnits="userSpaceOnUse" x1="3.61" y1="31.7343" x2="48.69" y2="31.7343" gradientTransform="matrix(1 0 0 -1 0 50)">
		<stop  offset="0" style="stop-color:#00599C"/>
		<stop  offset="1" style="stop-color:#00C0F2"/>
	</linearGradient>
	<path display="none" fill="url(#SVGID_00000076566177809161064200000015495915340544528038_)" d="M48.7,24.5c0,3.6-2.9,6.7-6.9,7.9
		C40.9,32.6,40,32,40,31v-0.2c0-0.6,0.4-1,0.9-1.2c2.6-0.8,4.4-2.7,4.4-4.9c0-2.9-3.2-5.3-7.2-5.3c-0.4,0-0.8,0-1.2,0.1l0,0
		c-0.1,0-0.2,0-0.3,0c-0.9,0-1.7-0.7-1.7-1.7c0-0.2,0-0.4,0.1-0.5v-0.1c0.3-0.8,0.4-1.6,0.4-2.4c0-4-3.2-7.2-7.2-7.2
		c-3.4,0-6.2,2.4-7,5.5l0,0c-0.2,0.8-0.8,1.3-1.6,1.3c-0.5,0-0.9-0.2-1.2-0.5l0,0c-0.6-0.6-1.5-1-2.5-1c-1.9,0-3.5,1.5-3.5,3.5
		c0,0.4,0,0.6,0.1,0.9c0.1,0.2,0.2,0.6,0.2,0.9c0.1,0.8-0.6,1.5-1.3,1.6l0,0c-2.7,0.4-4.5,2.7-4.5,4.9c0,2.5,2.3,4.6,5.5,5.2
		c0.7,0.1,1.1,0.7,1.1,1.3v0.1c0,0.9-0.7,1.6-1.6,1.4c-4.8-0.6-8.5-4.1-8.5-8.3c0-3.3,2.2-6,5.5-7.4c0.1,0,0.3-0.1,0.4-0.2
		c0-0.1,0.1-0.1,0.1-0.3c0-0.1,0-0.4,0-0.5c-0.2-2.7,1.7-5.2,4.4-5.9c1.5-0.3,2.8-0.2,4,0.3c0.3,0.1,0.5,0,0.7-0.3
		C20.4,5.8,25.1,3,30.3,4c5.1,1,8.7,5.7,8.5,10.8c0,0.2,0,0.5-0.1,0.7c0,0.3,0.2,0.5,0.4,0.5C44.6,16.7,48.7,20.2,48.7,24.5z"/>
</g>
<g>
	
		<linearGradient id="SVGID_00000095338929204977460730000014552445755963272080_" gradientUnits="userSpaceOnUse" x1="25.0065" y1="3.1823" x2="25.2999" y2="48.2301" gradientTransform="matrix(1 0 0 -1 0 50)">
		<stop  offset="0" style="stop-color:#2666C9"/>
		<stop  offset="1" style="stop-color:#7797C9"/>
	</linearGradient>
	<path fill="url(#SVGID_00000095338929204977460730000014552445755963272080_)" d="M47.7,14.9c0,7-5.7,12.7-12.7,12.7
		c-1.6,0-3-0.3-4.4-0.8L25.3,32L11.6,45.8l0,0C10.1,47.3,7.9,47.7,6,47c-0.7-0.2-1.3-0.7-1.9-1.2c-1.7-1.7-2-4.3-0.9-6.3l0,0l0,0
		c0.1-0.1,0.1-0.2,0.2-0.3c0.1-0.1,0.2-0.3,0.3-0.4l0,0c0-0.1,0.1-0.1,0.1-0.2l0,0C4,38.5,4,38.4,4,38.4l0.1-0.1l0,0L5,37.4l0.1-0.1
		L23,19.4c-0.5-1.4-0.8-2.9-0.8-4.5c0-7,5.7-12.7,12.7-12.7c0.2,0,0.5,0,0.8,0c1.7,0.1,3.3,0.5,4.8,1.2l-6.7,6.7l0.7,2.6l0.5,2
		l2,0.6l2.7,0.7l6.7-6.7c0.7,1.5,1.2,3.1,1.2,4.8C47.6,14.4,47.7,14.7,47.7,14.9z"/>
</g>
</svg>
