<svg xmlns="http://www.w3.org/2000/svg" xmlns:xlink="http://www.w3.org/1999/xlink" viewBox="0 0 74.375 85" fill="#fff" fill-rule="evenodd" stroke="#000" stroke-linecap="round" stroke-linejoin="round">
	<style><![CDATA[.B{fill:#d9a741}.C{fill:#876929}.D{fill:#fad791}.E{fill:#624a1e}]]></style>
	<use xlink:href="#{83AB667F-3EE1-4781-AE80-2C7727F27E7A}" x="2.188" y="2.5"/>
	<symbol id="{83AB667F-3EE1-4781-AE80-2C7727F27E7A}" overflow="visible">
		<g stroke="none">
			<path d="M70 45.005l-16.997-.661-11.013.661 18.177 23.401L70 45.005z" class="D"/>
			<path d="M70 35.316l-16.997.661-11.013-.661 18.177-23.401L70 35.316zm-70-.029l16.997.69 11.013-.661L9.833 12.031 0 35.287z" class="E"/>
			<path d="M0 45.005l16.997-.661 11.013.661L9.833 68.426 0 45.005z" class="D"/>
			<path d="M60.167 34.383l9.833.933V16.57l-9.833-4.655v22.468z" class="B"/>
			<path d="M41.99 16.56l18.177-4.645v22.468l-18.177.933V16.56z" class="C"/>
			<path d="M35 13.839l19.686 6.093v9.271L35 25.919v-12.08z" class="B"/>
			<path d="M26.132 27.444l9.012-1.506 19.542 3.265-8.735.904-19.82-2.663z" class="E"/>
			<path d="M9.833 34.383L0 35.287V16.482l9.833-4.587v22.488z" class="C"/>
			<path d="M28.01 16.56L9.833 11.895v22.488l18.177.933V16.56z" class="B"/>
			<path d="M35 13.839l-19.686 6.093v9.271L35 25.919v-12.08z" class="C"/>
			<path d="M43.868 27.444l-9.012-1.506-19.542 3.265 8.735.904 19.82-2.663z" class="E"/>
			<path d="M60.167 45.938L70 45.005v18.746l-9.833 4.655V45.938z" class="B"/>
			<path d="M41.99 63.761l18.177 4.645V45.938l-18.177-.933v18.756z" class="C"/>
			<path d="M35 66.482l19.686-6.093v-9.271L35 54.403v12.08z" class="B"/>
			<path d="M26.132 52.877l9.012 1.497 19.542-3.256-8.735-.904-19.82 2.663z" class="D"/>
			<path d="M9.833 45.938L0 45.005v18.746l9.833 4.675V45.938z" class="C"/>
			<path d="M28.01 63.761L9.833 68.426V45.938l18.177-.933v18.756z" class="B"/>
			<path d="M35 66.482l-19.686-6.093v-9.271L35 54.403v12.08z" class="C"/>
			<path d="M43.868 52.877l-9.012 1.497-19.542-3.256 8.735-.904 19.82 2.663z" class="D"/>
			<path d="M24.531 75.044L35 80l5.809-2.75 4.66-72.293L35 0 24.531 4.956v70.087z" class="C"/>
			<path d="M45.469 75.044L35 80V0l10.469 4.956v70.087z" class="B"/>
		</g>
	</symbol>
</svg>