<svg xmlns="http://www.w3.org/2000/svg" xmlns:xlink="http://www.w3.org/1999/xlink" viewBox="0 0 74.375 85" fill="#fff" fill-rule="evenodd" stroke="#000" stroke-linecap="round" stroke-linejoin="round">
	<use xlink:href="#{9E7E378C-E4B6-40A0-859E-3754DCF2F8BA}" x="2.188" y="2.5"/>
	<symbol id="{9E7E378C-E4B6-40A0-859E-3754DCF2F8BA}" overflow="visible">
		<g stroke="none">
			<path d="M0 63.44l4.455 2.109 7.874-25.51-7.874-25.588L0 16.56V63.44z" fill="#9d5025"/>
			<path d="M13.078 16.395L4.455 14.48v51.069l8.623-1.914v-47.24z" fill="#f58536"/>
			<path d="M9.814 11.914l6.539-3.1 8.161 31.225-8.161 31.147-6.539-3.1V11.914z" fill="#9d5025"/>
			<path d="M29.75 67.026l-13.396 4.043V8.814l13.397 4.053v54.159z" fill="#f58536"/>
			<path d="M60.166 19.757h5.359v38.824l-5.359-.282V19.757z" fill="#9d5025"/>
			<path d="M39.378 20.321l6.016-2.935 19.71 2.371.585 4.966-5.4.719-20.911-5.122z" fill="#6b3a19"/>
			<path d="M39.553 59.68l6.005 2.935 20.295-7.347-5.389-.709-20.911 5.121z" fill="#fbbf93"/>
			<g fill="#9d5025">
				<path d="M41.072 51.438l10.727 1.36V27.201l-10.727 1.351v22.886z"/>
				<path d="M24.514 75.044L34.985 80l8.992-40.058L34.985 0 24.514 4.956v70.088z"/>
			</g>
			<path d="M34.995 0v80L70 63.43V16.569zm30.529 55.326L45.455 61.03V18.97l20.059 5.695zM51.799 27.201v25.675l11.158-12.838L51.799 27.2z" fill="#f58536"/>
		</g>
	</symbol>
</svg>