<?xml version="1.0" encoding="utf-8"?>
<!-- Generator: Adobe Illustrator 28.1.0, SVG Export Plug-In . SVG Version: 6.00 Build 0)  -->
<svg version="1.1" id="Service_Proxy" xmlns="http://www.w3.org/2000/svg" xmlns:xlink="http://www.w3.org/1999/xlink" x="0px"
	 y="0px" viewBox="0 0 50 50" enable-background="new 0 0 50 50" xml:space="preserve">
<g id="_x3C_Service_Proxy_x3E_">
	
		<linearGradient id="_x3C_Cloud_x3E__00000085220107314384019200000009340835800608368549_" gradientUnits="userSpaceOnUse" x1="25.5391" y1="-3.3552" x2="25.1649" y2="41.7233">
		<stop  offset="0.2229" style="stop-color:#0099C4"/>
		<stop  offset="0.7627" style="stop-color:#794E9F"/>
	</linearGradient>
	<path id="_x3C_Cloud_x3E_" fill="url(#_x3C_Cloud_x3E__00000085220107314384019200000009340835800608368549_)" d="M47.8,25.4
		c0,4.6-4.7,8.4-10.6,8.4H36c-0.7,0-1.2-0.5-1.2-1.2V32c0-0.7,0.5-1.2,1.2-1.2h2c3.6,0,6.5-2.2,6.5-5c0-1.7-1.2-3.3-3-4.2
		c-0.1-0.1-0.3-0.1-0.4-0.2c-0.1,0-0.2-0.1-0.2-0.1c-0.1,0-0.2-0.1-0.4-0.1l0,0c-0.2,0-0.3-0.1-0.5-0.1c-0.1,0-0.1,0-0.2,0
		c-0.1,0-0.3-0.1-0.5-0.1h-0.1c-0.2,0-0.4-0.1-0.6-0.1c-0.2,0-0.4,0-0.7,0c-0.1,0-0.2,0-0.3,0c-0.4,0-0.9,0.1-1.2,0.1
		c0.5-0.7,0.5-1.6-0.1-2.2c-0.5-0.5-1.2-0.6-1.8-0.4c0.2-0.5,0.3-1,0.4-1.5v-0.1c0-0.3,0.1-0.6,0.1-0.8c0-4-3.2-7.2-7.2-7.2
		c-3.4,0-6.2,2.3-7,5.4c-0.4-0.2-0.9-0.3-1.3-0.3c-0.9,0-1.8,0.4-2.3,1.1c-0.7-0.5-1.6-0.7-2.6-0.5C13,14.9,12,16.4,12.1,18
		c0,0.3,0.1,0.6,0.2,0.9l0,0c0,0.1,0,0.1,0.1,0.2c-0.1,0-0.2,0-0.3,0c-0.8,0-1.4,0.6-1.4,1.4c0,0.2,0,0.3,0.1,0.5l0,0
		c0,0,0,0.1,0.1,0.1c-2.5,0.6-4.3,2.5-4.3,4.8c0,2.7,2.6,4.9,5.7,5l0,0h2c0.7,0,1.2,0.5,1.2,1.2v0.6c0,0.7-0.5,1.2-1.2,1.2h-1.4
		c-5.5,0-10.1-3.8-10.1-8.4c0-3.3,2.3-6.2,5.8-7.6c0.2-0.1,0.3-0.3,0.3-0.5c0-0.1,0-0.3,0-0.5c0-2.5,1.5-4.8,3.8-5.6
		c1.7-0.6,3.3-0.5,4.6,0.1c0.3,0.1,0.5,0,0.7-0.3c1.6-3.7,5.3-6.3,9.7-6.3c5.8,0,10.6,4.7,10.6,10.6c0,0.4,0,0.8-0.1,1.2
		c0,0.2,0.2,0.5,0.4,0.5h0.1C43.8,17.7,47.8,21.2,47.8,25.4z"/>
	
		<linearGradient id="_x3C_Circle_x3E__00000008117942924221099480000006631049255082040217_" gradientUnits="userSpaceOnUse" x1="25.211" y1="5.6895" x2="25.1981" y2="46.9232">
		<stop  offset="0" style="stop-color:#0099C4"/>
		<stop  offset="0.8374" style="stop-color:#794E9F"/>
	</linearGradient>
	<path id="_x3C_Circle_x3E_" fill="url(#_x3C_Circle_x3E__00000008117942924221099480000006631049255082040217_)" d="M25.2,34.8
		c-3.4,0-6.1,2.7-6.1,6.1c0,3.3,2.7,6.1,6.1,6.1c3.3,0,6.1-2.7,6.1-6.1C31.2,37.6,28.5,34.8,25.2,34.8z M25.3,44.1
		c-1.7,0-3.1-1.4-3.1-3.1c0-1.7,1.4-3.1,3.1-3.1s3.1,1.4,3.1,3.1C28.3,42.7,27,44.1,25.3,44.1z"/>
	
		<linearGradient id="_x3C_Arrow_x3E__00000060714643966006717920000006588301813317655980_" gradientUnits="userSpaceOnUse" x1="25.3581" y1="6.6272" x2="25.1327" y2="46.1972">
		<stop  offset="0" style="stop-color:#0099C4"/>
		<stop  offset="0.1381" style="stop-color:#1E86BB"/>
		<stop  offset="0.3486" style="stop-color:#456EAF"/>
		<stop  offset="0.5419" style="stop-color:#625DA6"/>
		<stop  offset="0.71" style="stop-color:#7352A1"/>
		<stop  offset="0.8341" style="stop-color:#794E9F"/>
	</linearGradient>
	<path id="_x3C_Arrow_x3E_" fill="url(#_x3C_Arrow_x3E__00000060714643966006717920000006588301813317655980_)" d="M31.5,25.6
		c0,0.2-0.1,0.5-0.3,0.7l-0.4,0.4l-0.4,0.4c-0.4,0.4-1,0.4-1.3,0L26.9,25v9c-0.3-0.1-0.7-0.2-1-0.2c-0.2,0-0.5,0-0.7,0s-0.5,0-0.7,0
		c-0.3,0-0.7,0.1-1,0.2v-9l-2.1,2.1c-0.4,0.4-1,0.4-1.3,0l-0.4-0.4l0,0l-0.4-0.4c-0.4-0.4-0.4-1,0-1.3l1.2-1.2l2.4-2.4l0.9-0.9
		l0.8-0.8c0.2-0.2,0.4-0.3,0.5-0.3h0.1l0,0c0.1,0,0.1,0,0.2,0c0.2,0,0.3,0.1,0.5,0.3l5.3,5.3C31.4,25.1,31.5,25.4,31.5,25.6z"/>
</g>
</svg>
