<?xml version="1.0" encoding="UTF-8"?>
<svg id="Layer_1" xmlns="http://www.w3.org/2000/svg" version="1.1" xmlns:xlink="http://www.w3.org/1999/xlink" viewBox="0 0 50 50">
    <!-- Generator: Adobe Illustrator 29.3.0, SVG Export Plug-In . SVG Version: 2.1.0 Build 146)  -->
    <path d="M48.9,21.1v7.8c0,.4-.3.7-.7.8l-3.3.6c-.5,1.8-1.2,3.4-2.1,5l1.9,2.8c.2.3.2.8,0,1l-5.5,5.5c-.3.3-.7.3-1,.1l-2.8-1.9c-1.5.9-3.2,1.6-4.9,2l-.7,3.4c0,.4-.4.7-.8.7h-7.8c-.4,0-.7-.3-.8-.7l-.7-3.4c-1.7-.5-3.4-1.2-4.9-2l-2.9,1.9c-.3.2-.8.2-1-.1l-5.5-5.5c-.3-.3-.3-.7,0-1l1.9-2.9c-.9-1.5-1.6-3.2-2-4.9l-3.4-.7c-.4,0-.7-.4-.7-.8v-7.8c0-.4.3-.7.7-.8l3.4-.6c.5-1.7,1.2-3.4,2-4.9l-1.9-2.9c-.2-.3-.2-.8,0-1l5.5-5.5c.3-.3.7-.3,1-.1l2.8,1.9c1.5-.9,3.2-1.6,5-2.1l.7-3.3c0-.4.4-.7.8-.7h7.8c.4,0,.7.3.8.7l.6,3.3c1.8.5,3.4,1.2,5,2.1l2.8-1.9c.3-.2.8-.2,1,.1l5.5,5.5c.3.3.3.7,0,1l-1.9,2.8c.9,1.5,1.6,3.2,2.1,5l3.3.7c.4,0,.7.4.7.8Z" fill="#604a9b"/>
    <path d="M47.4,21.7v6.6l-3.3.6c-.2,0-.4.2-.5.4-.5,2-1.3,3.9-2.3,5.7s-.1.4,0,.6c.3.4.9,1.3,1.9,2.8l-4.7,4.7-2.8-1.9c-.2-.1-.4-.1-.6,0-1.7,1.1-3.6,1.9-5.7,2.4s-.4.2-.4.5c0,.5-.3,1.5-.6,3.3h-6.7l-.6-3.3c0-.2-.2-.4-.4-.5-2.1-.5-4-1.3-5.7-2.4s-.4-.1-.6,0c-.4.3-1.3.9-2.8,1.9l-4.7-4.7,1.9-2.8c.1-.2.1-.4,0-.6-1.1-1.7-1.9-3.7-2.4-5.7s-.2-.4-.5-.4c-.5,0-1.5-.3-3.3-.6v-6.6l3.3-.6c.2,0,.4-.2.5-.4.5-2.1,1.3-4,2.4-5.7s.1-.4,0-.6c-.3-.5-.9-1.3-1.9-2.8l4.7-4.7,2.8,1.9c.2.1.4.1.6,0,1.7-1.1,3.7-1.9,5.7-2.4s.4-.2.4-.5c0-.5.3-1.5.6-3.3h6.7l.6,3.3c0,.2.2.4.4.5,2,.5,4,1.3,5.7,2.4s.4.1.6,0c.4-.3,1.3-.9,2.8-1.9l4.7,4.7-1.9,2.8c-.1.2-.1.4,0,.6,1.1,1.7,1.9,3.6,2.3,5.7s.2.4.5.4c.5,0,1.5.3,3.4.6Z" fill="#6db6df"/>
    <circle cx="25" cy="25" r="16.7" fill="#604a9b"/>
    <circle cx="25" cy="25" r="15.2" fill="#e2595e"/>
    <circle cx="25" cy="25" r="13.4" fill="#604a9b"/>
    <circle cx="25" cy="25" r="11.8" fill="#fff"/>
    <g>
        <path d="M23.4,28l-2-4.9h0c0-.1-.5-1.4-.5-1.4,0-.1-.1-.3-.3-.4,0,0-.1,0-.2,0,0,0-.1,0-.2,0s-.1,0-.2,0c0,0-.1,0-.2,0-.1,0-.2.2-.3.4l-.5,1.2h0c0,.1-2,5-2,5,0,.1,0,.2,0,.3,0,.1,0,.2,0,.3,0,.1,0,.2.1.3,0,0,.1.2.2.2,0,0,.2,0,.3,0s.2,0,.3,0c0,0,.2,0,.3-.2,0,0,.1-.2.2-.3l.7-1.7.2-.4h2.1v.4c.1,0,.8,1.7.8,1.7,0,.1,0,.2.2.3,0,0,.2.1.3.2,0,0,.2,0,.3,0s.2,0,.3,0c0,0,.2-.1.2-.2,0,0,.1-.2.1-.3,0,0,0-.2,0-.3,0-.1,0-.2,0-.3ZM19.7,25.2l.4-.9h0c0-.1,0-.3,0-.3v.2c0,0,.1.1.1.1l.3.9h-.9Z" fill="#604a9b"/>
        <path d="M29.8,22.3c-.1-.3-.3-.6-.5-.8-.2-.2-.5-.4-.8-.5-.3-.1-.6-.2-.9-.2h-2c-.1,0-.2,0-.3,0-.1,0-.2,0-.2.2,0,0-.1.2-.2.2,0,.1,0,.2,0,.3v6.7c0,.1,0,.2,0,.3,0,0,0,.2.2.2s.1.1.2.2c0,0,.2,0,.3,0s.2,0,.3,0c0,0,.2-.1.2-.2,0,0,.1-.2.2-.2,0-.1,0-.2,0-.3v-2.5h1.3c.3,0,.7,0,.9-.2.3-.1.5-.3.8-.5.2-.2.4-.5.5-.8.1-.3.2-.6.2-1s0-.7-.2-1ZM28.4,23.6c0,.1-.1.2-.2.3,0,0-.2.2-.3.2-.1,0-.2,0-.3,0h-1.3v-1.8h1.3c.1,0,.2,0,.3,0,.1,0,.2.1.3.2,0,0,.2.2.2.3,0,.1,0,.2,0,.3s0,.2,0,.4Z" fill="#604a9b"/>
        <path d="M33.1,21.3c0-.1,0-.2-.2-.2s-.2-.1-.2-.2c-.1,0-.2,0-.3,0s-.2,0-.3,0c0,0-.2.1-.3.2,0,0-.1.1-.2.2,0,0,0,.2,0,.3v6.7c0,.1,0,.2,0,.3,0,.1,0,.2.2.2,0,0,.2.1.3.2,0,0,.2,0,.3,0s.2,0,.3,0c0,0,.2-.1.2-.2s.1-.1.2-.2c0,0,0-.2,0-.3v-6.7c0-.1,0-.2,0-.3Z" fill="#604a9b"/>
    </g>
</svg>