<?xml version="1.0" encoding="UTF-8"?>
<svg id="Layer_1" xmlns="http://www.w3.org/2000/svg" version="1.1" xmlns:xlink="http://www.w3.org/1999/xlink" viewBox="0 0 50 50">
    <!-- Generator: Adobe Illustrator 29.3.1, SVG Export Plug-In . SVG Version: 2.1.0 Build 151)  -->
    <defs>
        <linearGradient id="linear-gradient" x1="24.95001" y1="45.91304" x2="24.95001" y2="4.03616" gradientUnits="userSpaceOnUse">
            <stop offset="0" stop-color="#8562ab"/>
            <stop offset="1" stop-color="#a988bf"/>
        </linearGradient>
        <linearGradient id="linear-gradient1" x1="25" y1="45.91304" x2="25" y2="4.03616" gradientUnits="userSpaceOnUse">
            <stop offset="0" stop-color="#8562ab"/>
            <stop offset="1" stop-color="#a988bf"/>
        </linearGradient>
        <linearGradient id="linear-gradient2-777" x1="19.56075" y1="44.93478" x2="19.56075" y2="4.72826">
            <stop offset="0" stop-color="#8562ab"/>
            <stop offset="1" stop-color="#a988bf"/>
        </linearGradient>
        <linearGradient id="linear-gradient3-888" x1="27.64526" y1="44.93478" x2="27.64526" y2="4.72826">
            <stop offset="0" stop-color="#8562ab"/>
            <stop offset="1" stop-color="#a988bf"/>
        </linearGradient>
        <linearGradient id="linear-gradient4-999" x1="32.82568" y1="44.93478" x2="32.82568" y2="4.72826">
            <stop offset="0" stop-color="#8562ab"/>
            <stop offset="1" stop-color="#a988bf"/>
        </linearGradient>
    </defs>
    <path d="M45.17999,21.39001c-.46002-.09003-.78998-.16003-1.02997-.17999-.06-.01001-.11005-.01001-.15002-.01001l.09998-.10004c-.22998-1.15997-.54999-2.26996-.95996-3.32996-.04999-.12-.10004-.25-.15002-.37-.13-.29004-.26001-.58002-.39001-.86005-.13995-.28998-.28998-.57001-.42999-.83997-.12-.22003-.23999-.42999-.37-.64001-.15997-.26001-.32001-.51001-.5-.76001l.01001-.01996,1.78998-2.68005-4.69995-4.69995c-1.38.88995-2.27002,1.47998-2.68005,1.78998-.00995,0-.00995.01001-.01996.01001-1.58002-1.02002-3.34003-1.85999-5.23999-2.41003-.01001,0-.02002-.00995-.03003-.00995-.5-.15002-1.01001-.27002-1.52997-.38v-.03003l-.60004-3.27002h-6.70001c-.29999,1.80005-.59998,2.80005-.59998,3.30005-.31.06-.62.13-.92999.20996-.91998.23999-1.81.54004-2.66998.90002-1.13.46997-2.20001,1.03998-3.20001,1.69l-2.70001-1.79999-4.70001,4.69995c.90002,1.40002,1.5,2.20001,1.79999,2.70001-.12.17999-.22998.35999-.33997.54999-1.14001,1.87-2.01001,3.98004-2.46002,6.25l-3.29999.60004v6.59998c1.79999.29999,2.79999.60004,3.29999.60004h.07001c.32001,1.59998.84003,3.13,1.53003,4.56.09998.19995.19995.39996.31.59998.06.13.13.26001.20996.39001.23999.42999.5.84998.78003,1.25l-.01001.01996-1.89001,2.78003,4.70001,4.70001c1.47998-.98999,2.37-1.58002,2.78003-1.89001.00995,0,.00995-.01001.01996-.01001.98999.64001,2.04004,1.21002,3.15002,1.67999.33002.14001.65997.27002.98999.39001.84003.29999,1.69.54999,2.56.72998l.59998,3.30005h6.70001c.29004-1.77002.59003-2.76001.60004-3.27002v-.03003c2.5-.5,4.79999-1.5,6.79999-2.79999l.01996.01001,2.78003,1.89001,4.70001-4.70001c-.98999-1.47998-1.58002-2.37-1.89001-2.78003,0-.00995-.01001-.00995-.01001-.01996,1.29999-2,2.29999-4.29999,2.79999-6.70001l3.30005-.59998v-6.60004c-.95001-.14996-1.68005-.29999-2.22003-.40997ZM41.70001,28.52002c-.42999,2.10999-1.27002,4.07996-2.41998,5.82001-1.26001,1.92999-2.91003,3.57996-4.84003,4.83997-1.76001,1.16998-3.76001,2.01001-5.90997,2.44-1.09003.22998-2.22003.34003-3.38.34003-1.19,0-2.35004-.12-3.47003-.36005-.02997-.00995-.06-.00995-.08997-.01996-1.58002-.33002-3.08002-.89001-4.46002-1.64001-.44-.23999-.85999-.48999-1.27002-.76001-1.92999-1.26001-3.57996-2.90997-4.83997-4.83997-.23004-.36005-.46002-.72003-.67004-1.10004-.06995-.12-.13-.22998-.17999-.33997-.09998-.17004-.17999-.35004-.26996-.52002-.60004-1.23999-1.05005-2.56-1.32001-3.95001-.23004-1.08997-.34003-2.21997-.34003-3.38,0-3.20996.89001-6.20996,2.44-8.76996,1.85004-3.02002,4.60004-5.42004,7.89001-6.82001.73999-.31,1.51001-.57001,2.31-.78003.27002-.07001.53998-.13.79999-.17999,1.12-.23999,2.28003-.35999,3.47003-.35999,1.01996,0,2.00995.07996,2.97998.26996.04999,0,.09998.01001.15002.02002.07996.02002.16998.03003.25.04999,2.14996.42999,4.14996,1.27002,5.90997,2.44,1.41998.92999,2.69,2.07001,3.76001,3.38.02997.02002.03998.04004.06.07001.34998.34998.64001.75.88,1.19.01001.01001.01996.02002.01996.03003.04004.04999.08002.10999.12006.16998.14996.21997.28998.44.42999.67999.10999.17999.20996.35999.32001.54999.12.23999.25.47998.37.72998.10999.24005.21997.49005.33997.75.04004.10004.08002.21002.13.32001.38.95001.66998,1.95001.87,2.98004.21002,1.04999.32001,2.14996.32001,3.27997,0,1.19-.12,2.35004-.35999,3.47003Z" fill="url(#linear-gradient)"/>
    <path d="M25,9.79999c-8.40002,0-15.20001,6.79999-15.20001,15.20001s6.79999,15.20001,15.20001,15.20001,15.20001-6.79999,15.20001-15.20001-6.79999-15.20001-15.20001-15.20001ZM25,36.79999c-6.5,0-11.79999-5.29999-11.79999-11.79999s5.29999-11.79999,11.79999-11.79999,11.79999,5.29999,11.79999,11.79999-5.29999,11.79999-11.79999,11.79999Z" fill="url(#linear-gradient1)"/>
    <path d="M21.18799,27.07129h-3.25195l-.72656,1.78809c-.04688.11328-.11279.20996-.19727.29004s-.18115.13965-.28906.17676c-.1084.03809-.22217.05566-.34229.05273-.12012-.00195-.23633-.02637-.34912-.07422-.11279-.04688-.20703-.1123-.28223-.19727s-.13037-.17969-.16553-.2832c-.03564-.10352-.05078-.21289-.0459-.3291.00439-.11523.03271-.22949.08447-.34277l3.16699-7.28906c.0752-.16504.18213-.29443.3208-.38867s.2998-.1416.4834-.1416c.16943,0,.32422.0459.46533.1377.14111.09229.24707.2207.31738.38525l3.125,7.29639c.04688.11328.07373.22754.08105.34277.00684.11621-.00586.22461-.03906.3252-.03271.10156-.08545.19531-.15869.2793-.07275.08496-.16553.15332-.27832.20508-.11279.05273-.22705.07812-.34229.07812s-.22559-.01855-.33154-.05664c-.10547-.03711-.20215-.09668-.28906-.17676s-.15625-.17676-.20801-.29004l-.74756-1.78809ZM18.65576,25.31738h1.79834l-.90967-2.18457-.88867,2.18457Z" fill="url(#linear-gradient2-777)"/>
    <path d="M26.39941,25.79785v2.72266c0,.12207-.02344.23535-.07031.33887s-.10938.19434-.18652.27246-.17041.13867-.27832.18359c-.1084.04492-.22119.06738-.33887.06738-.12207,0-.23633-.02246-.3418-.06738-.10596-.04492-.19873-.10547-.27881-.18359s-.14209-.16895-.18701-.27246c-.04443-.10352-.06689-.2168-.06689-.33887v-7.32471c0-.12256.02246-.23584.06689-.33984.04492-.10352.10693-.19434.18701-.27197s.17285-.13916.27881-.18359c.10547-.04492.21973-.06738.3418-.06738h2.34863c.38086,0,.74023.07178,1.07617.21582.33594.14355.62891.33936.88086.58643.25195.24756.44922.5376.59375.86963.14258.33252.21484.68945.21484,1.07129s-.07227.7373-.21484,1.06738c-.14453.33008-.3418.61816-.59375.86328s-.54492.4375-.88086.5791-.69531.21191-1.07617.21191h-1.47461ZM26.39941,22.06543v1.97949h1.48242c.13086,0,.25781-.02832.38086-.08496.12109-.05664.22852-.13184.32031-.22656.0918-.09375.16602-.20215.22266-.3252.05664-.12207.08398-.24951.08398-.38135s-.02734-.25684-.08398-.375c-.05664-.11768-.13086-.22021-.22266-.30762-.0918-.08691-.19922-.15527-.32031-.20459-.12305-.0498-.25-.07422-.38086-.07422h-1.48242Z" fill="url(#linear-gradient3-888)"/>
    <path d="M33.7002,28.52051c0,.12207-.02344.23535-.07031.33887s-.10938.19434-.18652.27246c-.07812.07812-.1709.13867-.2793.18359s-.2207.06738-.33789.06738c-.12305,0-.23633-.02246-.34277-.06738-.10547-.04492-.19824-.10547-.27832-.18359s-.14258-.16895-.18652-.27246c-.04492-.10352-.06738-.2168-.06738-.33887v-7.32471c0-.12256.02246-.23584.06738-.33984.04395-.10352.10645-.19434.18652-.27197s.17285-.13916.27832-.18359c.10645-.04492.21973-.06738.34277-.06738.11719,0,.22949.02246.33789.06738.1084.04443.20117.10596.2793.18359.07715.07764.13965.16846.18652.27197.04688.104.07031.21729.07031.33984v7.32471Z" fill="url(#linear-gradient4-999)"/>
</svg>