<?xml version="1.0" encoding="utf-8"?>
<!-- Generator: Adobe Illustrator 28.1.0, SVG Export Plug-In . SVG Version: 6.00 Build 0)  -->
<svg version="1.1" id="Cogs" xmlns="http://www.w3.org/2000/svg" xmlns:xlink="http://www.w3.org/1999/xlink" x="0px" y="0px"
	 viewBox="0 0 50 50" enable-background="new 0 0 50 50" xml:space="preserve">
<g id="_x3C_Cogs_x3E_">
	
		<linearGradient id="_x3C_Cog_B_x3E__00000055671363338898312860000017266058729121303203_" gradientUnits="userSpaceOnUse" x1="35.6" y1="2.1303" x2="35.6" y2="47.2107">
		<stop  offset="0" style="stop-color:#FCB645"/>
		<stop  offset="1" style="stop-color:#F57F20"/>
	</linearGradient>
	<path id="_x3C_Cog_B_x3E_" fill="url(#_x3C_Cog_B_x3E__00000055671363338898312860000017266058729121303203_)" d="M45.1,36l2.6-0.7
		l-2.3-8.4l-2.6,0.7c-0.2-0.3-0.4-0.5-0.7-0.8c-0.2-0.2-0.5-0.5-0.8-0.7l0.7-2.6L40.2,23l-1.5,5.4c0.3,0.2,0.6,0.5,0.9,0.8
		c0.4,0.4,0.7,0.8,1,1.2l0.7,1.1l1.7-0.4l0.5,1.8l-1.7,0.4l-0.1,1.2c0,1.1-0.3,2.1-0.8,3l-0.6,1.1l1.2,1.2l-1.3,1.3L39.1,40L38,40.6
		c-0.9,0.5-1.9,0.8-3,0.8l-1.2,0.1l-0.4,1.7l-1.8-0.5L32,41l-1.1-0.7c-0.4-0.3-0.9-0.6-1.2-1c-0.3-0.3-0.5-0.6-0.8-0.9l-5.4,1.5
		l0.5,1.8l2.6-0.7c0.2,0.3,0.4,0.5,0.7,0.8c0.2,0.2,0.5,0.5,0.8,0.7L27.3,45l8.4,2.2l0.7-2.6c0.7-0.1,1.3-0.3,2-0.5l1.9,1.9l6.1-6.1
		L44.6,38C44.8,37.3,45,36.7,45.1,36z"/>
	
		<linearGradient id="_x3C_Cog_A_x3E__00000123418336762401756210000013067891115197510567_" gradientUnits="userSpaceOnUse" x1="20.25" y1="2.1302" x2="20.25" y2="47.2122">
		<stop  offset="0" style="stop-color:#FBB041"/>
		<stop  offset="0" style="stop-color:#FCB645"/>
		<stop  offset="1" style="stop-color:#F57F20"/>
	</linearGradient>
	<path id="_x3C_Cog_A_x3E_" fill="url(#_x3C_Cog_A_x3E__00000123418336762401756210000013067891115197510567_)" d="M28.9,31.1
		c1-0.8,1.9-1.6,2.6-2.6l3.5,0.9l2.8-10.6L34.4,18c-0.2-1.2-0.5-2.4-1-3.6l2.5-2.5l-7.7-7.7l-2.5,2.5c-0.6-0.2-1.2-0.4-1.8-0.6
		c-0.6-0.2-1.2-0.3-1.8-0.4l-0.9-3.5L10.6,5.1l0.9,3.5c-1,0.8-1.9,1.6-2.6,2.6l-3.5-0.9L2.7,20.8l3.5,0.9c0.2,1.2,0.5,2.4,1,3.6
		l-2.5,2.5l7.7,7.7l2.5-2.5c0.6,0.2,1.2,0.4,1.7,0.6c0.6,0.2,1.2,0.3,1.8,0.4l0.9,3.5l10.6-2.8L28.9,31.1z M26.1,29L25,29.7l0.7,2.5
		l-4,1.1L21,30.7l-1.2-0.1c-0.8,0-1.6-0.2-2.3-0.4c-0.7-0.2-1.5-0.5-2.2-0.9l-1.1-0.6l-1.9,1.9l-2.9-2.9l1.9-1.9l-0.6-1.1
		c-0.7-1.4-1.2-3-1.2-4.6L9.4,19l-2.5-0.7l1.1-4l2.5,0.7l0.7-1.1c0.8-1.3,2-2.5,3.3-3.3l1.1-0.7l-0.7-2.5l4-1.1l0.7,2.5L20.7,9
		c0.8,0,1.6,0.2,2.3,0.4c0.8,0.2,1.5,0.5,2.2,0.9l1.1,0.6L28.2,9l2.9,2.9l-1.9,1.9l0.6,1.1c0.7,1.4,1.2,3,1.2,4.5l0.1,1.2l2.5,0.7
		l-1.1,4L30,24.6l-0.7,1.1C28.6,27,27.4,28.1,26.1,29z"/>
	
		<linearGradient id="_x3C_Circle_B_x3E__00000096031926712401574120000013900435340180423865_" gradientUnits="userSpaceOnUse" x1="20.3002" y1="2.1301" x2="20.3002" y2="47.2108">
		<stop  offset="0" style="stop-color:#FCB645"/>
		<stop  offset="1" style="stop-color:#F57F20"/>
	</linearGradient>
	<path id="_x3C_Circle_B_x3E_" fill="url(#_x3C_Circle_B_x3E__00000096031926712401574120000013900435340180423865_)" d="M22.3,12.3
		c-0.7-0.2-1.3-0.3-2-0.3c-3.5,0-6.6,2.4-7.5,5.8c-0.5,2-0.3,4.1,0.8,5.9c1,1.8,2.7,3.1,4.7,3.6c0.7,0.2,1.3,0.3,2,0.3
		c3.5,0,6.6-2.4,7.5-5.8C28.9,17.7,26.4,13.4,22.3,12.3z M24.5,21c-0.5,1.9-2.3,3.3-4.3,3.3c-0.4,0-0.8-0.1-1.1-0.2
		c-1.1-0.3-2.1-1-2.7-2.1c-0.6-1-0.7-2.2-0.4-3.3c0.5-1.9,2.3-3.3,4.2-3.3c0.4,0,0.8,0.1,1.1,0.2C23.7,16.2,25.1,18.6,24.5,21z"/>
	
		<linearGradient id="_x3C_Circle_A_x3E__00000018938037322964829430000009909191129243675060_" gradientUnits="userSpaceOnUse" x1="34.7" y1="2.125" x2="34.7" y2="47.2146">
		<stop  offset="0" style="stop-color:#FCB645"/>
		<stop  offset="1" style="stop-color:#F57F20"/>
	</linearGradient>
	<path id="_x3C_Circle_A_x3E_" fill="url(#_x3C_Circle_A_x3E__00000018938037322964829430000009909191129243675060_)" d="M32.5,32.1
		c-1.2,1.2-1.2,3.2,0,4.4s3.2,1.2,4.4,0s1.2-3.2,0-4.4C35.7,30.9,33.7,30.9,32.5,32.1z"/>
</g>
</svg>
