<?xml version="1.0" encoding="UTF-8"?>
<svg xmlns="http://www.w3.org/2000/svg" version="1.1" xmlns:xlink="http://www.w3.org/1999/xlink" viewBox="0 0 50 50">
  <defs>
    <linearGradient id="3A0376F2-B140-4227-83E3-3D2A2F362623" x1="24.9" y1="5.6" x2="25.1" y2="44.7" gradientUnits="userSpaceOnUse">
      <stop offset="0" stop-color="#fbb041"/>
      <stop offset="0" stop-color="#fcb645"/>
      <stop offset="1" stop-color="#f57f20"/>
    </linearGradient>
  </defs>
  <!-- Generator: Adobe Illustrator 28.7.1, SVG Export Plug-In . SVG Version: 1.2.0 Build 142)  -->
  <g>
    <g id="Layer_1">
      <path d="M44.9,5.8H5.1c-1.4,0-2.6,1.4-2.6,3v32.5c0,1.6,1.2,3,2.6,3h39.8c1.4,0,2.6-1.4,2.6-3V8.8c0-1.6-1.2-3-2.6-3ZM19,8c.9,0,1.7.8,1.7,1.7s-.8,1.7-1.7,1.7-1.7-.8-1.7-1.7.8-1.7,1.7-1.7ZM14.2,8c.9,0,1.7.8,1.7,1.7s-.8,1.7-1.7,1.7-1.7-.8-1.7-1.7.8-1.7,1.7-1.7ZM9.5,8c.9,0,1.7.8,1.7,1.7s-.8,1.7-1.7,1.7-1.7-.8-1.7-1.7.8-1.7,1.7-1.7ZM44,38.2c0,1.1-1,2.1-2.2,2.1H8.1c-1.2,0-2.2-1-2.2-2.1V15.1c0-1.1,1-2.1,2.2-2.1h33.7c1.2,0,2.2,1,2.2,2.1v23.1ZM39.8,19v8.2c0,1.2-.8,2.2-1.9,2.2h-6.6c-1,0-1.9-1-1.9-2.2v-8.2c0-1.2.8-2.2,1.9-2.2h6.6c1,0,1.9,1,1.9,2.2ZM26,19.3c0,.6-.2,1.1-.6,1.5-.4.4-.9.6-1.5.6h-13.1c-1.2,0-2.2-1-2.2-2.2s.2-1.1.6-1.5c.4-.4.9-.6,1.5-.6h13.1c1.2,0,2.2,1,2.2,2.2ZM26,27c0,.6-.2,1.1-.6,1.5-.4.4-.9.6-1.5.6h-13.1c-1.2,0-2.2-1-2.2-2.2s.2-1.1.6-1.5c.4-.4.9-.6,1.5-.6h13.1c1.2,0,2.2,1,2.2,2.2ZM39.8,34.7c0,.6-.2,1.1-.6,1.5-.4.4-.9.6-1.5.6H10.7c-1.2,0-2.2-1-2.2-2.2s.2-1.1.6-1.5c.4-.4.9-.6,1.5-.6h26.9c1.2,0,2.2,1,2.2,2.2Z" fill="url(#3A0376F2-B140-4227-83E3-3D2A2F362623)"/>
    </g>
  </g>
</svg>