<?xml version="1.0" encoding="UTF-8"?>
<svg xmlns="http://www.w3.org/2000/svg" version="1.1" xmlns:xlink="http://www.w3.org/1999/xlink" viewBox="0 0 50 50">
  <defs>
    <linearGradient id="b6f7546b-fb90-4f26-a43d-0cdb23981adflinear-gradient" x1="35.6" y1="114.1" x2="35.6" y2="159.2" gradientTransform="translate(0 -112)" gradientUnits="userSpaceOnUse">
      <stop offset="0" stop-color="#de4d52"/>
      <stop offset="1" stop-color="#bd2025"/>
    </linearGradient>
    <linearGradient id="b6f7546b-fb90-4f26-a43d-0cdb23981adflinear-gradient-2" x1="20.3" y1="114.1" x2="20.3" y2="159.2" gradientTransform="translate(0 -112)" gradientUnits="userSpaceOnUse">
      <stop offset="0" stop-color="#de4d52"/>
      <stop offset="1" stop-color="#bd2025"/>
    </linearGradient>
    <linearGradient id="b6f7546b-fb90-4f26-a43d-0cdb23981adflinear-gradient-3" x1="20.3" y1="114.1" x2="20.3" y2="159.2" gradientTransform="translate(0 -112)" gradientUnits="userSpaceOnUse">
      <stop offset="0" stop-color="#de4d52"/>
      <stop offset="1" stop-color="#bd2025"/>
    </linearGradient>
    <linearGradient id="b6f7546b-fb90-4f26-a43d-0cdb23981adflinear-gradient-4" x1="34.7" y1="114.1" x2="34.7" y2="159.2" gradientTransform="translate(0 -112)" gradientUnits="userSpaceOnUse">
      <stop offset="0" stop-color="#de4d52"/>
      <stop offset="1" stop-color="#bd2025"/>
    </linearGradient>
  </defs>
  <!-- Generator: Adobe Illustrator 28.6.0, SVG Export Plug-In . SVG Version: 1.2.0 Build 709)  -->
  <g>
    <g id="Layer_1">
      <g id="Cogs">
        <g id="_x3C_Cogs_x3E_">
          <path id="_x3C_Cog_B_x3E_" d="M45.1,36l2.6-.7-2.3-8.4-2.6.7c-.2-.3-.4-.5-.7-.8s-.5-.5-.8-.7l.7-2.6-1.8-.5-1.5,5.4c.3.2.6.5.9.8.4.4.7.8,1,1.2l.7,1.1,1.7-.4.5,1.8-1.7.4v1.2c0,1.1-.4,2.1-.9,3l-.6,1.1,1.2,1.2-1.3,1.3-1.1-1.1-1.1.6c-.9.5-1.9.8-3,.8h-1.2l-.4,1.8-1.8-.5.4-1.7-1.1-.7c-.4-.3-.9-.6-1.2-1-.3-.3-.5-.6-.8-.9l-5.4,1.5.5,1.8,2.6-.7c.2.3.4.5.7.8.2.2.5.5.8.7l-.8,2.5,8.4,2.2.7-2.6c.7,0,1.3-.3,2-.5l1.9,1.9,6.1-6.1-1.8-1.9c.2-.7.4-1.3.5-2h0Z" fill="url(#b6f7546b-fb90-4f26-a43d-0cdb23981adflinear-gradient)"/>
          <path id="_x3C_Cog_A_x3E_" d="M34.4,18c-.2-1.2-.5-2.4-1-3.6l2.5-2.5-7.7-7.7-2.5,2.5c-.6-.2-1.2-.4-1.8-.6-.6-.2-1.2-.3-1.8-.4l-.9-3.5-10.6,2.9.9,3.5c-1,.8-1.9,1.6-2.6,2.6l-3.5-.9-2.7,10.5,3.5.9c.2,1.2.5,2.4,1,3.6l-2.5,2.5,7.7,7.7,2.5-2.5c.6.2,1.2.4,1.7.6.6.2,1.2.3,1.8.4l.9,3.5,10.6-2.8-1-3.6c1-.8,1.9-1.6,2.6-2.6l3.5.9,2.8-10.6-3.4-.8ZM32.5,25.3l-2.5-.7-.7,1.1c-.7,1.3-1.9,2.4-3.2,3.3l-1.1.7.7,2.5-4,1.1-.7-2.6h-1.2c-.8-.1-1.6-.3-2.3-.5s-1.5-.5-2.2-.9l-1.1-.6-1.9,1.9-2.9-2.9,1.9-1.9-.6-1.1c-.7-1.4-1.2-3-1.2-4.6v-1.1l-2.6-.7,1.1-4,2.5.7.7-1.1c.8-1.3,2-2.5,3.3-3.3l1.1-.7-.7-2.5,4-1.1.7,2.5,1.1.2c.8,0,1.6.2,2.3.4.8.2,1.5.5,2.2.9l1.1.6,1.9-1.9,2.9,2.9-1.9,1.9.6,1.1c.7,1.4,1.2,3,1.2,4.5v1.2c0,0,2.6.7,2.6.7l-1.1,4Z" fill="url(#b6f7546b-fb90-4f26-a43d-0cdb23981adflinear-gradient-2)"/>
          <path id="_x3C_Circle_B_x3E_" d="M22.3,12.3c-.7-.2-1.3-.3-2-.3-3.5,0-6.6,2.4-7.5,5.8-.5,2-.3,4.1.8,5.9,1,1.8,2.7,3.1,4.7,3.6.7.2,1.3.3,2,.3,3.5,0,6.6-2.4,7.5-5.8,1.1-4.1-1.4-8.4-5.5-9.5ZM20.2,24.5c-2.6,0-4.7-2.1-4.7-4.7s2.1-4.7,4.7-4.7,4.7,2.1,4.7,4.7-2.1,4.7-4.7,4.7Z" fill="url(#b6f7546b-fb90-4f26-a43d-0cdb23981adflinear-gradient-3)"/>
          <path id="_x3C_Circle_A_x3E_" d="M32.5,32.1c-1.2,1.2-1.2,3.2,0,4.4s3.2,1.2,4.4,0,1.2-3.2,0-4.4-3.2-1.2-4.4,0Z" fill="url(#b6f7546b-fb90-4f26-a43d-0cdb23981adflinear-gradient-4)"/>
        </g>
      </g>
    </g>
  </g>
</svg>