<?xml version="1.0" encoding="utf-8"?>
<!-- Generator: Adobe Illustrator 28.2.0, SVG Export Plug-In . SVG Version: 6.00 Build 0)  -->
<svg version="1.1" id="Envelope" xmlns="http://www.w3.org/2000/svg" xmlns:xlink="http://www.w3.org/1999/xlink" x="0px" y="0px"
	 viewBox="0 0 50 50" style="enable-background:new 0 0 50 50;" xml:space="preserve">
<style type="text/css">
	.st0{fill:url(#_x3C_Fold_x3E__00000168809753745534905500000006911519799345029293_);}
	.st1{fill:url(#_x3C_Border_x3E__00000072994609171828410440000008682052711876826814_);}
</style>
<g id="_x3C_Envelope_x3E_">
	
		<linearGradient id="_x3C_Fold_x3E__00000054266713683636897900000014017106135548610234_" gradientUnits="userSpaceOnUse" x1="25.1712" y1="36.4589" x2="25.2313" y2="11.9853">
		<stop  offset="0" style="stop-color:#4A9924"/>
		<stop  offset="0.9937" style="stop-color:#8CE833"/>
	</linearGradient>
	<polygon id="_x3C_Fold_x3E_" style="fill:url(#_x3C_Fold_x3E__00000054266713683636897900000014017106135548610234_);" points="
		21,27 25.2,30.5 29.3,27 37,33.4 40.8,33.4 40.8,32 32,24.8 40.8,17.5 40.8,16.1 37,16.1 25.2,26 13.3,16.1 9.6,16.1 9.6,17.5 
		18.3,24.7 9.6,32 9.6,33.4 13.3,33.4 	"/>
	
		<linearGradient id="_x3C_Border_x3E__00000039846864325384931180000001488608237841093511_" gradientUnits="userSpaceOnUse" x1="25.0765" y1="42.452" x2="25.3178" y2="7.7612">
		<stop  offset="0" style="stop-color:#4A9924"/>
		<stop  offset="1" style="stop-color:#86DE33"/>
	</linearGradient>
	<path id="_x3C_Border_x3E_" style="fill:url(#_x3C_Border_x3E__00000039846864325384931180000001488608237841093511_);" d="
		M2.7,7.8v33.8h45V7.8H2.7z M44.2,38.2H6.1V11.3h38.1C44.2,11.3,44.2,38.2,44.2,38.2z"/>
</g>
</svg>
