<svg width="128px" height="128px" viewBox="10 11 28 28">
  
  
 <g stroke="none" stroke-width="1" fill="none" fill-rule="evenodd" id="icon-flow-fail"><g transform="translate(11.250000, 12.250000)" fill="#D13212" fill-rule="nonzero"><path d="M12.75,0 C5.70836944,0 0,5.70836944 0,12.75 C0,19.7916306 5.70836944,25.5 12.75,25.5 C19.7916306,25.5 25.5,19.7916306 25.5,12.75 C25.5,5.70836944 19.7916306,0 12.75,0 Z M12.75,1.5 C18.9632034,1.5 24,6.53679656 24,12.75 C24,18.9632034 18.9632034,24 12.75,24 C6.53679656,24 1.5,18.9632034 1.5,12.75 C1.5,6.53679656 6.53679656,1.5 12.75,1.5 Z"></path><path d="M16.5831403,8.21116377 C16.8767518,7.99330931 17.2934155,8.01751536 17.559682,8.28378193 C17.8259486,8.55004849 17.8501547,8.96671217 17.6323002,9.26032366 L17.559682,9.3444421 L13.622464,13.282112 L17.559682,17.2196699 C17.8525753,17.5125631 17.8525753,17.9874369 17.559682,18.2803301 C17.2934155,18.5465966 16.8767518,18.5708027 16.5831403,18.3529482 L16.4990219,18.2803301 L12.561464,14.343112 L8.62379406,18.2803301 L8.53967563,18.3529482 C8.24606413,18.5708027 7.82940045,18.5465966 7.56313389,18.2803301 C7.29686733,18.0140635 7.27266128,17.5973998 7.49051574,17.3037883 L7.56313389,17.2196699 L11.500464,13.282112 L7.56313389,9.3444421 C7.27024067,9.05154888 7.27024067,8.57667514 7.56313389,8.28378193 C7.82940045,8.01751536 8.24606413,7.99330931 8.53967563,8.21116377 L8.62379406,8.28378193 L12.561464,12.221112 L16.4990219,8.28378193 L16.5831403,8.21116377 Z"></path></g></g>


</svg>