<?xml version="1.0" encoding="iso-8859-1"?>
<svg width="64px" height="64px" viewBox="0 0 26 26">
  <g fill="#2AB512" fill-rule="nonzero"><path d="M12.75,0 C5.70836944,0 0,5.70836944 0,12.75 C0,19.7916306 5.70836944,25.5 12.75,25.5 C19.7916306,25.5 25.5,19.7916306 25.5,12.75 C25.5,5.70836944 19.7916306,0 12.75,0 Z M12.75,1.5 C18.9632034,1.5 24,6.53679656 24,12.75 C24,18.9632034 18.9632034,24 12.75,24 C6.53679656,24 1.5,18.9632034 1.5,12.75 C1.5,6.53679656 6.53679656,1.5 12.75,1.5 Z"></path><path d="M17.482151,9.3912361 C17.7750442,9.09834288 18.2499179,9.09834288 18.5428111,9.3912361 C18.8090777,9.65750266 18.8332838,10.0741663 18.6154293,10.3677778 L18.5428111,10.4518963 L11.1581958,17.8365117 C10.9013427,18.0933647 10.5030038,18.1258243 10.2104294,17.9293959 L10.1171609,17.8554362 L6.98253225,14.9408143 C6.67918728,14.6587599 6.66192789,14.1841999 6.94398232,13.8808549 C7.20039544,13.6050868 7.61590405,13.565753 7.91723953,13.7727921 L8.0039417,13.842305 L10.608,16.264 L17.482151,9.3912361 Z"></path></g>
</svg>
